<?xml version="1.0" ?><svg id="Layer_1" style="enable-background:new 0 0 4000 4000;" version="1.1" viewBox="0 0 4000 4000" xml:space="preserve" xmlns="http://www.w3.org/2000/svg" xmlns:xlink="http://www.w3.org/1999/xlink"><style type="text/css">
	.st0{fill:none;}
	.st1{fill:#EFF0F1;}
	.st2{fill:#D0D5D8;}
	.st3{fill:#FFFFFF;}
	.st4{fill:#1A1A1A;}
	.st5{fill:#FFC727;}
	.st6{fill:#C1BEBC;}
</style><g><path class="st0" d="M3347,2473.9c16.4-3.5,35.5-6.2,54.7-6.3c9.8,0,19.7,0.7,29.2,2.5c27.2-9.2,54-20.6,73.9-34.2   c-4.8-8.3-7.6-17.4-7.9-26.9c-23.5-6.3-59.8-8.9-109.7,8.7c-24.7,8.7-47.2,17.9-67.1,26.7c3.1,6.6,5.9,12.8,8.4,18.5   C3335.5,2465,3341.7,2468.9,3347,2473.9z"/><path class="st0" d="M2483.6,1754.6c0-0.2-0.1-0.4-0.1-0.5v0l-3.2,0C2481.5,1754.2,2482.6,1754.4,2483.6,1754.6z"/><path class="st0" d="M3205.5,2092.7C3205.5,2092.7,3205.5,2092.7,3205.5,2092.7C3205.5,2092.7,3205.5,2092.7,3205.5,2092.7   C3205.5,2092.7,3205.5,2092.7,3205.5,2092.7z"/><path class="st0" d="M2623.3,2639.2c-3.8,10.4-9.6,19.5-18.7,26.5c-5.9,4.5-13,8.1-21.6,10.6c-9.9,2.9-21.7,4.4-35.9,4.4   c-2.2,0-4.4,0-6.7-0.1h-22.9c-0.2,0.1-0.5,0.1-0.8,0.1s-0.5,0-0.8-0.1H1383.2l-0.3,0c-0.3,0-9-0.9-20-6.5c-1.6-0.8-3.2-1.7-4.8-2.7   c-9.2,4.9-20.4,6.5-31.2,6.5c-22.2,0-43.6-6.6-45.4-7.1l-0.3-0.1c-28.5,73.9-94.4,129.2-174.5,142.7h1753.1   c-91.6-15.5-164.6-85.6-184.4-175.6c-10.7,4.8-20.5,6.5-28.6,6.5C2635.8,2644.2,2627.6,2641.3,2623.3,2639.2z"/><path class="st1" d="M3205.5,2092.7c7.2,0.1,14,2.1,20.1,5c6.3,3,11.9,6.9,16.7,10.8c9.5,7.8,15.4,15.6,15.5,15.7l0,0   c0.7,0.9,0.5,2.3-0.4,3c-0.9,0.7-2.3,0.5-3-0.4l-0.1-0.2c-0.1-0.1-0.2-0.3-0.4-0.5c-0.4-0.5-0.9-1.2-1.7-2   c-1.5-1.7-3.7-4.1-6.4-6.7c-5.5-5.3-13.1-11.6-22-15.8c-4.6-2.2-9.6-3.8-14.7-4.3c17.6,21.7,88.8,106,97.2,57.7   c9.1-52.3-89.9-61.7-100.2-62.5C3205.9,2092.5,3205.7,2092.6,3205.5,2092.7C3205.5,2092.7,3205.5,2092.7,3205.5,2092.7z"/><path class="st1" d="M3276.8,2037.3c11.5-13.8,20.5-26.5,22.5-29.3c0.3-0.4,0.4-0.6,0.4-0.6l0,0c0.7-1,2-1.2,3-0.5   c1,0.7,1.2,2,0.5,3c0,0.1-19.8,28.7-40.6,49.5c-2.1,2.1-4.2,4.1-6.3,6c26.1-12.8,132.4-67.5,82.8-84.5   c-49.1-16.8-79.7,61.7-86.8,82.4c2-1.8,4-3.6,6-5.6C3264.7,2051.4,3271.1,2044.2,3276.8,2037.3z"/><path class="st1" d="M3424.1,2074.7L3424.1,2074.7c1,0.6,1.3,1.9,0.7,2.9c-0.6,1-1.9,1.3-2.9,0.7c0,0-0.5-0.3-1.5-0.9   c-1-0.6-2.4-1.4-4.2-2.4c-3.6-2.1-8.7-4.9-14.6-8.1c-11.9-6.3-27.2-13.9-40.7-19c-1.9-0.7-3.8-1.4-5.6-2   c17.2,16,101.1,91.8,122.3,61.4c18.4-26.4-67.8-50.7-106.9-60.1c6.7,2.8,13.5,6,20,9.2C3408.9,2065.6,3424.1,2074.7,3424.1,2074.7z   "/><polygon class="st1" points="3467.2,1960.6 3467.2,1960.6 3467.2,1960.6  "/><path class="st1" d="M3463,1970.5c2.1-4.2,3.5-7.5,4-9.1c0.1-0.4,0.2-0.7,0.2-0.8l0,0c0.1-1.1,1-2,2.1-2c1.2,0,2.1,1,2.1,2.1   c0,0.4-0.1,0.5-0.1,0.8c0,0.2-0.1,0.4-0.2,0.6c-0.1,0.5-0.3,1-0.6,1.7c-0.5,1.3-1.2,3.1-2.2,5.2c-1.9,4.2-4.8,9.7-8.7,15.6   c-4.3,6.5-9.8,13.6-16.6,19.9c27.8-10.8,99-41.9,62.1-65.4c-44.1-28.1-71.3,56.8-72.5,68.4   C3447.7,1996.7,3457.8,1980.9,3463,1970.5z"/><path class="st1" d="M3573.5,2021.3L3573.5,2021.3c1.1,0.5,1.6,1.7,1.2,2.8c-0.5,1.1-1.7,1.6-2.8,1.2c0,0-0.7-0.3-2-0.8   c-1.3-0.5-3.2-1.3-5.5-2.2c-4.6-1.8-11-4.4-17.9-7c-9.2-3.5-19.5-7.3-28.2-10.1c11.1,17.6,56,80,100.9,47.3   c43.1-31.5-58.1-45.2-92.2-48.9c4.9,1.7,10,3.5,15,5.4C3558.4,2015.1,3573.4,2021.3,3573.5,2021.3z"/><path class="st1" d="M3596.7,1978.7c1.2-0.2,2.3,0.6,2.4,1.8c0.2,1.2-0.6,2.3-1.8,2.4c0,0-1,0.1-2.9,0.4c-1.9,0.3-4.8,0.7-8.5,1.3   c-0.4,0.1-0.8,0.1-1.3,0.2c26.1,10.6,109.9,40.4,105-14.6c-3.5-39.1-112.7,11.4-112.7,11.4s0.1,0,0.2,0.1   C3589.6,1979.8,3596.7,1978.7,3596.7,1978.7L3596.7,1978.7z"/><path class="st1" d="M3068,1927.6l-0.1-0.2l0,0c-0.5-1.1,0-2.4,1.1-2.8c1.1-0.5,2.4,0,2.8,1.1c0,0.1,2.5,5.4,4.9,13.6   c2.4,8.1,4.9,19,4.9,30.1c0,5-0.5,10.1-1.8,14.9c0.4-0.4,0.8-0.8,1.2-1.1c9-21.5,40.4-104.7-14.4-96c-54.7,8.7-5,78.6,8.9,96.7   c1.3-4.7,1.8-9.6,1.8-14.6C3077.3,1949.6,3069,1929.8,3068,1927.6z"/><polygon class="st1" points="3197.9,1933.9 3197.9,1933.9 3197.9,1933.9  "/><path class="st1" d="M3196.3,1933.4c1.2,0,2.1,0,2.4-0.1c0.2-0.1,0.5-0.2,0.8-0.2c1.2,0,2.1,1,2.1,2.1c0,0.7-0.3,1.3-0.6,1.5   c-0.3,0.3-0.5,0.4-0.7,0.5c-0.3,0.1-0.5,0.2-0.7,0.2c-0.3,0.1-0.6,0.1-0.9,0.1c-0.6,0-1.4,0-2.5,0.1c-3.9,0-10.9-0.2-18.9-0.2   c-8.9,0-19,0.3-27.5,1.2c18.6,7.3,100.7,37.1,88.4-6.2c-11.9-41.8-70.7-8.7-87.6,1.8c8.5-0.9,18.1-1.1,26.7-1.1   C3185.4,1933.2,3192.5,1933.4,3196.3,1933.4z"/><path class="st1" d="M3242.8,1857.2c6.4-11.8,12.1-24.6,15.7-33.1c2.4-5.7,3.9-9.5,4.1-10l0,0c0.4-1.1,1.7-1.6,2.8-1.2   c1.1,0.4,1.6,1.7,1.2,2.8c-0.1,0.3-1,2.6-2.5,6.2c-1.5,3.5-3.5,8.3-5.9,13.8c-4.9,10.9-11.4,24.3-18.4,35.2c0,0.1-0.1,0.1-0.1,0.2   c27.7-21.2,92.3-75.1,55.2-90.1c-74.6-27.8-66.9,98.8-66.9,98.8s0,0,0.1,0c1.6-1.8,3.2-3.8,4.7-6.1   C3236.2,1868.8,3239.6,1863.2,3242.8,1857.2z"/><path class="st1" d="M3368.3,1856.5c14.9,5.7,27.8,11.3,27.8,11.3l0,0c1.1,0.5,1.6,1.7,1.1,2.8c-0.5,1.1-1.7,1.6-2.8,1.1   c0,0-0.4-0.2-1.3-0.5c-0.8-0.4-2-0.9-3.6-1.5c-3-1.3-7.3-3-12.2-5c-9.9-3.9-22.4-8.7-33-11.9c-2.3-0.7-4.4-1.3-6.5-1.8   c15.2,15.6,82.3,81.5,99.7,39.8c16.8-40.1-69.5-43.1-95.5-43.1c1.2,0.3,2.3,0.7,3.5,1C3352.8,1850.8,3360.8,1853.6,3368.3,1856.5z"/><path class="st1" d="M3501.3,1839.1c-0.2,1.2-1.2,2-2.4,1.8c-9.6-1.3-19.1-2.2-28.4-2.9c20.9,16.4,109.1,82,106.4,17   c-2.8-67.7-94-28.3-108.8-21.5c10.3,0.7,20.7,1.7,31.3,3.1C3500.7,1836.9,3501.5,1837.9,3501.3,1839.1z"/><path class="st1" d="M2986.1,1792c-0.3-1.3-0.5-2-0.5-2l0,0c-0.3-1.1,0.4-2.3,1.5-2.6c1.1-0.3,2.3,0.4,2.6,1.5c0,0,3,11.3,6.1,26.5   c2.6,13,5.2,28.8,5.9,42.9c2.1-20.9,11.6-130.4-29.7-106.1c-39.1,23,10.4,87.1,25.3,104.9c-0.7-11.4-2.5-23.9-4.6-35   C2990.1,1808.2,2987.2,1796.5,2986.1,1792z"/><path class="st1" d="M3092.6,1768.4c17.4-6.3,32.9-9.9,32.9-9.9l0,0c1.2-0.3,2.3,0.5,2.6,1.6c0.3,1.2-0.5,2.3-1.6,2.6   c0,0-0.5,0.1-1.5,0.4c-1,0.2-2.4,0.6-4.2,1.1c-3.6,0.9-8.6,2.3-14.4,4.1c-11.5,3.6-26,8.8-37.5,15.3c-0.5,0.3-1,0.6-1.4,0.8   c23.9,4.3,123.4,19.3,98.2-36.5c-26.2-58-91.2,20.2-101.8,33.6c1-0.6,1.9-1.1,2.9-1.7C3074.8,1775.4,3084,1771.5,3092.6,1768.4z"/><path class="st1" d="M3191.4,1616.2c0.4-0.8,0.5-1.3,0.4-1.4h0c0-1.2,1-2.1,2.1-2.1c1.2,0,2.1,1,2.1,2.1c0,1.1-0.4,2.1-0.8,3.2   c-0.5,1.1-1.2,2.2-2,3.5c-1.7,2.6-4.2,5.8-7.3,9.6c-4.2,5.1-9.7,11.4-16.2,18.7c23.6-12.6,115.6-64.8,81.5-90.9   c-69.9-53.4-84.4,67.5-86.5,90.1c9.8-11.1,17.5-19.9,22.2-26.1C3189.2,1620,3190.7,1617.7,3191.4,1616.2z"/><path class="st1" d="M3114.2,1650.4l-0.1-0.1l0,0c-0.4-1.1,0.2-2.3,1.3-2.8c1.1-0.4,2.3,0.2,2.8,1.3c0,0.1,5.6,15.3,5.6,32.9   c0,5.5-0.6,11.3-2.1,16.9c0.1-0.1,0.1-0.1,0.2-0.2c11.5-24.4,37.1-87.8-12.8-78.2c-34.3,6.6-2.5,68.2,6.2,83.9   c3.1-7,4.2-14.8,4.2-22.4C3119.5,1666,3114.7,1651.9,3114.2,1650.4z"/><path class="st2" d="M3145.1,1935.1c23.7-17.3,49.4-33.5,77.3-47.5c-0.6-0.9-0.4-2.2,0.5-2.9c1.5-1.2,3.2-2.7,4.8-4.6   c-3,1.4-5.9,2.9-8.9,4.4c-31.1,15.8-59.5,34.2-85.4,53.9c1.2-0.7,2.6-1.2,4.2-1.7C3139.8,1936.1,3142.3,1935.5,3145.1,1935.1z"/><path class="st2" d="M3075.4,1994.4c18.2-17.8,38.3-35.6,60.3-52.3c-0.2,0.1-0.3,0.1-0.5,0.2c-1,0.5-1.6,1.1-2,1.5   c-0.7,0.9-2.1,1.1-3,0.4c-0.9-0.7-1.1-2.1-0.4-3c0.1-0.1,0.2-0.2,0.3-0.3c-17.6,13.6-34,27.8-49.1,42.1c-0.4,0.4-0.8,0.8-1.2,1.1   c-0.8,3.1-1.9,6.2-3.4,9.1c-0.5,1.1-1.8,1.5-2.9,0.9c-1.1-0.5-1.5-1.8-0.9-2.9c0-0.1,0.1-0.2,0.1-0.3   c-16.5,16.1-31.4,32.3-44.8,48.1c1,1,2,2,3,3.1C3044.3,2026.5,3059.1,2010.4,3075.4,1994.4z"/><path class="st2" d="M3327.8,1849c-0.1,0-0.3,0-0.4,0c-1.2,0-2.1-1-2.1-2.2c0-1.2,1-2.1,2.2-2.1c3,0.1,6.7,0.8,11,1.9   c30.2-6.4,62.1-9.9,95.7-9.9c11.9,0,24,0.5,36.3,1.4c9.3,0.7,18.8,1.6,28.4,2.9c1.2,0.2,2.3-0.7,2.4-1.8c0.2-1.2-0.7-2.3-1.8-2.4   c-10.6-1.4-21-2.4-31.3-3.1c-11.5-0.8-22.8-1.2-33.9-1.2c-74.3,0-140.3,17.1-197.9,43.7c-2,2.9-4.1,5.4-6.2,7.7   C3260.3,1869.2,3292.9,1857.2,3327.8,1849z"/><path class="st2" d="M3051.9,1797.4c0,0.1-0.1,0.1-0.1,0.2c-0.7,1-2,1.3-3,0.6c-1-0.7-1.3-2-0.6-3c-16,23.5-31.8,48.9-46.6,75.9   c-0.3,4.8-0.9,9.2-2.1,12.9c-0.4,1.1-1.6,1.7-2.7,1.4c-1.1-0.4-1.7-1.6-1.4-2.7c0,0,0-0.1,0-0.1c-14.7,27.9-28.1,57.4-39.4,88.4   c1.2,1,2.3,2,3.5,3.1C2983.5,1908,3017.3,1848.3,3051.9,1797.4z"/><path class="st2" d="M3062.1,1782.7c5.5-7.8,11-15.4,16.4-22.7c30.5-41,59.7-74.5,81.4-99.1c3.5-4,6.8-7.7,9.8-11.1   c6.4-7.3,11.9-13.6,16.2-18.7c3.1-3.8,5.6-7,7.3-9.6c0.9-1.3,1.5-2.5,2-3.5c0.5-1.1,0.8-2,0.8-3.2c0-1.2-1-2.1-2.1-2.1   c-1.2,0-2.1,1-2.1,2.1h0c0,0-0.1,0.6-0.4,1.4c-0.7,1.5-2.2,3.8-4.5,6.8c-4.7,6.1-12.4,14.9-22.2,26.1c-7.9,9-17.2,19.5-27.5,31.4   c-4.9,5.7-10,11.7-15.3,18c-0.1,0.1-0.1,0.1-0.2,0.2c-1.5,5.8-4.1,11.5-8.1,16.5c-0.7,0.9-2.1,1.1-3,0.3c-0.9-0.7-1.1-2.1-0.3-3   c-19.6,24-41,51.8-62.1,82.8C3051.3,1790.5,3056.2,1786.4,3062.1,1782.7z"/><path class="st2" d="M3181.9,2104.8c2.7-1.5,5.5-2.9,8.2-4.4c-1,0.5-2,1-3,1.5c-1,0.6-2.3,0.3-2.9-0.8c-0.6-1-0.3-2.2,0.7-2.9   c-1.7,0.9-3.4,1.8-5.1,2.7c-22.3,12.1-42.5,25.2-59.7,39.3c0.9,1.1,1.8,2.2,2.7,3.3C3139.8,2129.7,3159.8,2116.8,3181.9,2104.8z"/><path class="st2" d="M3346.7,2039.3c34.9-10.6,69.5-19.6,101.3-27.1c18.3-4.3,35.6-8.1,51.6-11.4c0,0,0,0,0,0   c-1.2,0.2-2.3-0.5-2.5-1.7c-0.2-1.2,0.5-2.3,1.6-2.5c-19.2,4-40.5,8.7-62.9,14.1c-3.7,2.7-7.6,5.2-11.9,7.3c-1.1,0.5-2.3,0.1-2.9-1   c-0.5-1.1-0.1-2.3,1-2.9c0.1,0,0.1-0.1,0.2-0.1c-20.9,5.2-42.6,11.1-64.7,17.5c-7.7,2.3-15.4,4.6-23.2,7c1.2-0.2,2.4-0.3,3.7-0.3   C3340.7,2038.2,3343.6,2038.6,3346.7,2039.3z"/><path class="st2" d="M3507.5,1997.5c1.1,0.3,2.2,0.6,3.5,0.9c16.3-3.3,31-6.1,43.4-8.3c12.7-2.3,22.9-4,30.3-5.2   c0.4-0.1,0.9-0.1,1.3-0.2c3.7-0.6,6.6-1,8.5-1.3c1.9-0.3,2.9-0.4,2.9-0.4c1.2-0.2,2-1.3,1.8-2.4c-0.2-1.2-1.3-2-2.4-1.8h0   c0,0-7.1,1-19.5,3.1c-17.2,2.9-44.8,7.7-78.4,14.7c0.5-0.1,1-0.1,1.6-0.1C3502.2,1996.4,3504.6,1996.8,3507.5,1997.5z"/><path class="st2" d="M3205.5,2092.7C3205.5,2092.7,3205.5,2092.7,3205.5,2092.7c0.2-0.1,0.4-0.2,0.6-0.3   c39.8-19.2,84.6-35.8,129.4-49.7c-1,0.2-1.8,0.4-2.4,0.7c-1.1,0.5-2.3,0.1-2.9-1s-0.1-2.3,1-2.9c0.1,0,0.1,0,0.2-0.1   c-25.6,8.1-51.2,16.9-75.9,26.7c-4.5,4-9,7.5-13.3,10c-1,0.6-2.3,0.3-2.9-0.8c-0.6-1-0.3-2.3,0.8-2.9c0,0,0,0,0,0   c-17.9,7.5-35.2,15.5-51.6,24c5.6-2.6,11.2-3.8,16.6-3.8C3205.2,2092.7,3205.3,2092.7,3205.5,2092.7z"/><path class="st2" d="M3325.3,1846.8c0,1.2,0.9,2.2,2.1,2.2c0.1,0,0.3,0,0.4,0c2.5,0.1,6,0.8,10.1,1.8c2,0.5,4.2,1.1,6.5,1.8   c10.6,3.2,23.1,8,33,11.9c4.9,2,9.2,3.7,12.2,5c1.5,0.6,2.7,1.2,3.6,1.5c0.8,0.4,1.3,0.5,1.3,0.5c1.1,0.5,2.3,0,2.8-1.1   c0.5-1.1,0-2.4-1.1-2.8l0,0c0,0-12.9-5.6-27.8-11.3c-7.5-2.8-15.5-5.7-22.7-7.9c-1.2-0.4-2.4-0.7-3.5-1c-1.2-0.3-2.4-0.7-3.5-1   c-4.3-1.1-8-1.8-11-1.9C3326.4,1844.7,3325.4,1845.6,3325.3,1846.8z"/><path class="st2" d="M3222.8,1884.7c-0.9,0.7-1.1,1.9-0.5,2.9c0,0,0,0.1,0.1,0.1c0.7,0.9,2.1,1.1,3,0.4c1.6-1.2,3.2-2.7,4.8-4.4   c2.1-2.2,4.1-4.8,6.2-7.7c1.1-1.6,2.2-3.2,3.3-5c0-0.1,0.1-0.1,0.1-0.2c7-11,13.5-24.4,18.4-35.2c2.4-5.4,4.5-10.2,5.9-13.8   c1.5-3.5,2.3-5.8,2.5-6.2c0.4-1.1-0.1-2.3-1.2-2.8c-1.1-0.4-2.3,0.1-2.8,1.2l0,0c-0.2,0.5-1.7,4.3-4.1,10   c-3.6,8.5-9.3,21.3-15.7,33.1c-3.2,5.9-6.6,11.6-10,16.4c-1.6,2.2-3.2,4.3-4.7,6.1c-0.1,0.2-0.3,0.3-0.4,0.5   C3226,1882,3224.4,1883.6,3222.8,1884.7z"/><path class="st2" d="M3130.2,1944.3c0.9,0.7,2.3,0.6,3-0.4c0.4-0.5,1-1,2-1.5c0.1-0.1,0.3-0.2,0.5-0.2c1.7-0.8,4-1.6,6.8-2.2   c2.2-0.5,4.7-0.9,7.4-1.2c8.4-1,18.6-1.3,27.5-1.2c8,0,15,0.2,18.9,0.2c1,0,1.8,0,2.5-0.1c0.3,0,0.6,0,0.9-0.1   c0.2,0,0.3-0.1,0.7-0.2c0.2-0.1,0.4-0.2,0.7-0.5c0.3-0.3,0.6-0.8,0.6-1.5c0-1.2-1-2.1-2.1-2.1c-0.3,0-0.5,0.1-0.8,0.2   c-0.3,0-1.2,0.1-2.4,0.1c-3.8,0-10.8-0.2-18.9-0.2c-8.5,0-18.2,0.2-26.7,1.1c-0.5,0.1-0.9,0.1-1.4,0.1c-1.5,0.2-2.9,0.4-4.2,0.6   c-2.7,0.4-5.3,1-7.5,1.7c-1.6,0.5-3,1-4.2,1.7c-0.1,0-0.2,0.1-0.3,0.1c-1.2,0.6-2.1,1.4-3,2.3c-0.1,0.1-0.2,0.2-0.3,0.3   C3129.1,1942.2,3129.3,1943.5,3130.2,1944.3z M3197.9,1933.9L3197.9,1933.9L3197.9,1933.9L3197.9,1933.9z"/><path class="st2" d="M3073.6,1994.2c1.1,0.5,2.3,0.1,2.9-0.9c1.5-2.9,2.6-5.9,3.4-9.1c1.3-4.9,1.8-9.9,1.8-14.9   c0-11.1-2.5-22-4.9-30.1c-2.4-8.1-4.9-13.5-4.9-13.6c-0.5-1.1-1.8-1.6-2.8-1.1c-1.1,0.5-1.6,1.8-1.1,2.8l0,0l0.1,0.2   c1,2.3,9.4,22,9.3,41.7c0,5-0.5,9.9-1.8,14.6c-0.7,2.5-1.6,4.9-2.7,7.2c0,0.1-0.1,0.2-0.1,0.3   C3072.1,1992.3,3072.5,1993.6,3073.6,1994.2z"/><path class="st2" d="M3184.2,2101.2c0.6,1,1.9,1.4,2.9,0.8c1-0.6,2-1.1,3-1.5c5.1-2.4,10-3.4,14.9-3.4c1.4,0,2.7,0.1,4.1,0.2   c5.1,0.6,10,2.1,14.7,4.3c8.8,4.2,16.5,10.5,22,15.8c2.7,2.6,4.9,5,6.4,6.7c0.7,0.9,1.3,1.5,1.7,2c0.2,0.2,0.3,0.4,0.4,0.5l0.1,0.2   c0.7,0.9,2.1,1.1,3,0.4c0.9-0.7,1.1-2.1,0.4-3l0,0c-0.1-0.1-6-7.9-15.5-15.7c-4.7-3.9-10.4-7.9-16.7-10.8c-6.2-2.9-13-4.9-20.1-5   c0,0,0,0,0,0c-0.1,0-0.3,0-0.4,0c-5.4,0-11,1.1-16.6,3.8c-1.1,0.5-2.3,1.1-3.4,1.8c0,0-0.1,0.1-0.1,0.1   C3184,2099,3183.7,2100.2,3184.2,2101.2z"/><path class="st2" d="M3239.2,2075.5c0.6,1,1.9,1.4,2.9,0.8c4.3-2.5,8.8-6,13.3-10c0.3-0.3,0.7-0.6,1-0.9c2.1-1.9,4.2-3.9,6.3-6   c20.8-20.8,40.5-49.5,40.6-49.5c0.7-1,0.4-2.3-0.5-3c-1-0.7-2.3-0.4-3,0.5l0,0c0,0-0.1,0.2-0.4,0.6c-2,2.8-11,15.6-22.5,29.3   c-5.7,6.9-12.1,14-18.5,20.3c-2,2-4,3.9-6,5.6c-4.3,3.8-8.5,7-12.4,9.3c0,0,0,0,0,0C3238.9,2073.2,3238.6,2074.5,3239.2,2075.5z"/><path class="st2" d="M3330.1,2042.5c0.5,1.1,1.8,1.5,2.9,1c0.6-0.3,1.5-0.6,2.4-0.7c0.8-0.1,1.7-0.2,2.7-0.2   c4.4,0,10.4,1.3,17.1,3.5c1.8,0.6,3.7,1.3,5.6,2c13.5,5,28.8,12.6,40.7,19c5.9,3.2,11,6,14.6,8.1c1.8,1,3.2,1.9,4.2,2.4   c1,0.6,1.5,0.9,1.5,0.9c1,0.6,2.3,0.3,2.9-0.7c0.6-1,0.3-2.3-0.7-2.9l0,0c0,0-15.2-9.1-33.5-18.2c-6.5-3.2-13.3-6.4-20-9.2   c-2.8-1.2-5.5-2.3-8.2-3.3c-5.6-2.1-10.9-3.8-15.7-4.8c-3.1-0.6-6-1-8.6-1c-1.3,0-2.5,0.1-3.7,0.3c-1.1,0.2-2.2,0.5-3.2,1   c-0.1,0-0.1,0-0.2,0.1C3330,2040.1,3329.6,2041.4,3330.1,2042.5z"/><path class="st2" d="M3421.1,2017c0.5,1.1,1.8,1.5,2.9,1c4.3-2.1,8.2-4.6,11.9-7.3c2.6-1.9,5-4,7.3-6.1   c6.8-6.3,12.3-13.4,16.6-19.9c3.9-5.9,6.8-11.4,8.7-15.6c1-2.1,1.7-3.8,2.2-5.2c0.2-0.7,0.4-1.2,0.6-1.7c0.1-0.2,0.1-0.4,0.2-0.6   c0-0.2,0.1-0.4,0.1-0.8c0-1.2-1-2.1-2.1-2.1c-1.1,0-2,0.9-2.1,2l0,0c0,0-0.1,0.4-0.2,0.8c-0.5,1.6-1.9,4.9-4,9.1   c-5.2,10.4-15.3,26.2-30.2,37.1c-3.3,2.4-6.8,4.6-10.5,6.4c-0.1,0-0.1,0.1-0.2,0.1C3421,2014.6,3420.6,2015.9,3421.1,2017z    M3467.2,1960.6L3467.2,1960.6L3467.2,1960.6L3467.2,1960.6z"/><path class="st2" d="M3497.1,1999.1c0.2,1.2,1.4,1.9,2.5,1.7c0,0,0,0,0,0c0.1,0,0.3-0.1,0.7,0c1.2,0,3.4,0.3,6.1,1   c3.3,0.8,7.3,2,11.8,3.4c8.7,2.8,19,6.6,28.2,10.1c7,2.7,13.3,5.2,17.9,7c2.3,0.9,4.2,1.7,5.5,2.2c1.3,0.5,2,0.8,2,0.8   c1.1,0.5,2.3-0.1,2.8-1.2c0.5-1.1-0.1-2.3-1.2-2.8h0c0,0-15-6.2-31.6-12.4c-5-1.9-10.1-3.7-15-5.4c-3.3-1.1-6.5-2.2-9.4-3.1   c-2.3-0.7-4.5-1.4-6.5-1.9c-1.2-0.3-2.4-0.6-3.5-0.9c-2.9-0.7-5.3-1.1-7.1-1.1c-0.5,0-1.1,0-1.6,0.1c0,0,0,0,0,0c0,0,0,0,0,0   C3497.6,1996.8,3496.9,1997.9,3497.1,1999.1z"/><path class="st2" d="M3048.8,1798.2c1,0.7,2.3,0.4,3-0.6c0-0.1,0.1-0.1,0.1-0.2c3-4.5,8.7-9,15.6-13c0.5-0.3,0.9-0.6,1.4-0.8   c11.5-6.4,25.9-11.7,37.5-15.3c5.8-1.8,10.8-3.2,14.4-4.1c1.8-0.5,3.2-0.8,4.2-1.1c1-0.2,1.5-0.4,1.5-0.4c1.2-0.3,1.9-1.4,1.6-2.6   c-0.3-1.2-1.4-1.9-2.6-1.6l0,0c-0.1,0-15.6,3.6-32.9,9.9c-8.7,3.1-17.8,7-25.8,11.4c-1,0.6-2,1.1-2.9,1.7c-0.6,0.4-1.2,0.8-1.8,1.1   c-5.9,3.7-10.8,7.9-13.9,12.5c0,0,0,0,0,0c0,0,0,0,0,0C3047.6,1796.2,3047.8,1797.5,3048.8,1798.2z"/><path class="st2" d="M2996.8,1885.4c1.1,0.4,2.3-0.3,2.7-1.4c1.2-3.7,1.8-8.1,2.1-12.9c0.1-1.9,0.2-3.8,0.2-5.9   c0-2.2-0.1-4.5-0.2-6.9c-0.7-14.1-3.3-29.9-5.9-42.9c-3-15.2-6-26.4-6.1-26.5c-0.3-1.1-1.5-1.8-2.6-1.5c-1.1,0.3-1.8,1.5-1.5,2.6   l0,0c0,0,0.2,0.7,0.5,2c1.1,4.5,4,16.2,6.6,30c2.1,11.1,3.9,23.7,4.6,35c0.2,2.8,0.3,5.5,0.3,8.1c0,6.8-0.6,12.9-2,17.4   c0,0,0,0.1,0,0.1C2995.1,1883.9,2995.7,1885.1,2996.8,1885.4z"/><path class="st2" d="M3110.6,1715.4c0.9,0.7,2.3,0.6,3-0.3c4-5,6.5-10.7,8.1-16.5c1.5-5.6,2-11.4,2.1-16.9   c0-17.6-5.6-32.8-5.6-32.9c-0.4-1.1-1.6-1.7-2.8-1.3c-1.1,0.4-1.7,1.6-1.3,2.8l0,0l0.1,0.1c0.6,1.6,5.3,15.7,5.3,31.3   c0,7.5-1.1,15.3-4.2,22.4c-1.3,3-2.9,5.8-5,8.4c0,0,0,0,0,0C3109.6,1713.3,3109.7,1714.7,3110.6,1715.4z"/><path class="st1" d="M3667.5,2269.1c-18.8,0-36.4,3.7-51.6,10.2c-21.8-12.7-51.6-20.6-84.4-20.6c-66.8,0-121,32.5-121,72.6   c0,10.4,3.6,20.2,10.1,29.1c-40.5,35.3-77.3,55.3-109.3,65.8c3.2,6.4,6.1,12.5,8.9,18.2c19.9-8.8,42.4-18,67.1-26.7   c49.9-17.6,86.2-15,109.7-8.7c0.3,9.5,3.1,18.6,7.9,26.9c-19.9,13.6-46.7,24.9-73.9,34.2c2.8,0.5,5.5,1.1,8.3,1.8   c29-9.8,54.8-19.4,72.4-26.3c18.8,22.6,53.7,37.8,93.6,37.8c57.6,0,104.6-31.5,108.1-71.3c33.6-12.4,56.7-38,56.7-67.5   C3770,2302.9,3724.1,2269.1,3667.5,2269.1z"/><ellipse class="st1" cx="3752.4" cy="2190.1" rx="53.6" ry="49.6"/><path class="st1" d="M3876.3,2129c-15.9,0-28.8,12.9-28.8,28.8c0,15.9,12.9,28.8,28.8,28.8c15.9,0,28.8-12.9,28.8-28.8   C3905.1,2141.9,3892.2,2129,3876.3,2129z"/><path class="st1" d="M3484.8,2504.5l2.6-1.9c3.3,4.4,5.6,9,7.1,13.7c21.2,8.6,64.2,0.2,55.8-18.1c-12.1-26.5-64.7-4.2-64.7-4.2   c-0.8,1.5-1.3,2.9-1.7,4.3c1.2,1.4,2.4,2.8,3.5,4.4L3484.8,2504.5z"/><path class="st1" d="M315.3,2833.4c0,24.6,77.3,44.6,172.7,44.6c95.4,0,172.7-20,172.7-44.6c0-4.7-2.9-9.3-8.2-13.6H323.5   C318.2,2824.1,315.3,2828.6,315.3,2833.4z"/><path class="st1" d="M751.4,2846.7c0,1.1,0.1,2.1,0.3,3.2h171.2c1.8,0,3.2,1.4,3.2,3.2c0,1.8-1.4,3.2-3.2,3.2H753.8   c28.2,58.2,309.4,103.8,652.2,103.8c59.3,0,116.8-1.4,171.4-3.9c77.1,37,338.1,64.1,648.2,64.1c231.3,0,435.3-15.1,556-38.1   c371.5-8.5,658.6-64.9,658.6-133.2c0-10-6.2-19.8-17.9-29.2H769.9C757.8,2828.4,751.4,2837.4,751.4,2846.7z M2898.1,2921.7h-30.8   c-1.8,0-3.2-1.4-3.2-3.2c0-1.8,1.4-3.2,3.2-3.2h30.8c1.8,0,3.2,1.4,3.2,3.2C2901.3,2920.2,2899.8,2921.7,2898.1,2921.7z    M2742,2866.1h250.5c1.8,0,3.2,1.4,3.2,3.2c0,1.8-1.4,3.2-3.2,3.2H2742c-1.8,0-3.2-1.4-3.2-3.2   C2738.8,2867.5,2740.2,2866.1,2742,2866.1z M1171.8,2866.1h52.5c1.8,0,3.2,1.4,3.2,3.2c0,1.8-1.4,3.2-3.2,3.2h-52.5   c-1.8,0-3.2-1.4-3.2-3.2C1168.5,2867.5,1170,2866.1,1171.8,2866.1z M960.6,2907h209.2c1.8,0,3.2,1.4,3.2,3.2c0,1.8-1.4,3.2-3.2,3.2   H960.6c-1.8,0-3.2-1.4-3.2-3.2C957.4,2908.4,958.8,2907,960.6,2907z"/><path d="M463.7,1820.2c-1.3,1.3-3.3,1.3-4.6,0l-15.3-15.3v1008.5H479l0-1008.4L463.7,1820.2z"/><polygon points="479,1804.9 479,2813.4 482.2,2813.4 485.4,2813.4 485.4,1798.5  "/><polygon points="443.9,2813.4 443.9,1804.9 437.5,1798.5 437.5,2813.4  "/><path class="st3" d="M461.4,1813.3l358.8-358.7l-358.8-358.7l-358.8,358.7L461.4,1813.3z M377.1,1481.9c-1.4,0-2.7-0.9-3.1-2.3   l-34.8-113c-0.4-1.4,0.1-2.9,1.3-3.7l86.9-55.3c1.1-0.7,2.6-0.7,3.7,0.2c1.1,0.8,1.5,2.2,1.1,3.5l-15.1,48.7   c31.6,8.7,55.9,26,74.4,47.3c19.1,22.1,32,48.5,40.8,74.5c17.5,52,18.6,102.6,18.6,114.4c0,1.7,0,2.5,0,2.6c0,0.9-0.4,1.7-1.1,2.3   c-0.7,0.6-1.6,0.9-2.4,0.8c0,0,0,0-55.3-5.3c-1.7-0.2-3-1.7-2.9-3.4c0.3-6.4,0.5-12.6,0.5-18.6c0-57.5-14.4-96.3-32.8-122.6   c-17.2-24.6-38-38.2-54-45.8l-22.7,73.3C379.8,1481,378.5,1481.9,377.1,1481.9z"/><path class="st4" d="M443.9,1804.9l15.3,15.3c1.3,1.3,3.3,1.3,4.6,0l15.3-15.3l6.4-6.4L827,1456.9c0.6-0.6,0.9-1.4,0.9-2.3   c0-0.9-0.3-1.7-0.9-2.3l-363.3-363.3c-1.3-1.3-3.3-1.3-4.6,0L95.9,1452.4c-1.3,1.3-1.3,3.3,0,4.6l341.6,341.6L443.9,1804.9z    M461.4,1095.9l358.8,358.7l-358.8,358.7l-358.8-358.7L461.4,1095.9z"/><path d="M397.9,1401c0.3-0.9,0.9-1.6,1.7-2c0.8-0.4,1.8-0.4,2.6,0c17.2,7.5,40.7,22,60,49.4c19.2,27.4,34,67.7,34,126.3   c0,5.1-0.1,10.5-0.4,15.9c31,3,43.7,4.2,48.8,4.6c0-9.8-0.9-39.1-8.2-73.8c-7.5-36.1-22.1-77.9-49.6-109.8   c-18.4-21.2-42.5-38.1-74.4-46.2c-0.9-0.2-1.6-0.8-2-1.5c-0.4-0.8-0.5-1.7-0.3-2.5l13.5-43.5l-77.4,49.3l31,100.7L397.9,1401z"/><path d="M456.9,1452.1c18.4,26.3,32.8,65.1,32.8,122.6c0,6-0.2,12.2-0.5,18.6c-0.1,1.7,1.2,3.2,2.9,3.4c55.3,5.3,55.3,5.3,55.3,5.3   c0.9,0.1,1.8-0.2,2.4-0.8c0.7-0.6,1.1-1.4,1.1-2.3c0,0,0-0.9,0-2.6c0-11.8-1.1-62.3-18.6-114.4c-8.8-26-21.7-52.4-40.8-74.5   c-18.4-21.4-42.7-38.6-74.4-47.3l15.1-48.7c0.4-1.3,0-2.7-1.1-3.5c-1.1-0.8-2.5-0.9-3.7-0.2l-86.9,55.3c-1.2,0.8-1.8,2.3-1.3,3.7   l34.8,113c0.4,1.3,1.7,2.3,3.1,2.3c1.4,0,2.7-0.9,3.1-2.3l22.7-73.3C419,1413.9,439.7,1427.5,456.9,1452.1z M423.6,1317.9   l-13.5,43.5c-0.3,0.8-0.2,1.8,0.3,2.5c0.4,0.8,1.2,1.3,2,1.5c31.9,8.1,56,24.9,74.4,46.2c27.6,31.9,42.1,73.7,49.6,109.8   c7.3,34.7,8.1,64.1,8.2,73.8c-5.1-0.5-17.7-1.7-48.8-4.6c0.2-5.4,0.4-10.7,0.4-15.9c0-58.6-14.8-98.9-34-126.3   c-19.2-27.4-42.8-42-60-49.4c-0.8-0.4-1.8-0.4-2.6,0c-0.8,0.4-1.5,1.1-1.7,2l-20.7,66.9l-31-100.7L423.6,1317.9z"/><path class="st4" d="M2859.8,2813.4H1106.7c-12.5,2.1-25.2,3.2-38.3,3.2c-13,0-25.8-1.1-38.3-3.2H485.4h-3.2H479h-35.1h-6.4H197.1   c-1.8,0-3.2,1.4-3.2,3.2c0,1.8,1.4,3.2,3.2,3.2h126.4h328.9h117.5h2652.3h183.8c1.8,0,3.2-1.4,3.2-3.2c0-1.8-1.4-3.2-3.2-3.2   h-669.7c-12.5,2.1-25.2,3.2-38.3,3.2C2885,2816.6,2872.2,2815.5,2859.8,2813.4z"/><path d="M1284.2,2664.8c0.6,0.2,1.6,0.5,2.7,0.8c2.4,0.6,5.8,1.5,9.9,2.4c8.2,1.7,19.1,3.4,30,3.4c9,0,17.8-1.2,25.1-4.3   c-8.1-6.2-16.3-15.2-22.6-28.3c-6-12.6-10.2-29-10.7-50c-1.8-13.5-5.1-34.7-12.6-59.3c-4.5-14.8-10.6-30.8-18.7-47   c-21.8-43.4-58.5-88.6-121.7-118.3c-23.1-10.8-49.9-19.6-80.8-25.4c-25.3-4.7-53.4-7.5-84.7-7.7l-0.1,0c-1.3,0-2.6-0.1-3.8-0.1   c-19.7,0-39.4,5.3-58.8,14.3c-19.4,9-38.3,21.8-56.2,36.6c-35.8,29.7-67.6,67.8-90.7,100.8c-15.4,22-27.1,41.8-33.6,55.3l-0.1,0.2   c-2.3,4.1-4.6,7.5-6.8,10.4c0.4,0.2,0.9,0.4,1.4,0.7c3.2,1.5,7.9,3.4,13.5,5.4c11.3,3.9,26.5,7.9,42.1,7.8   c10.8,0,21.7-1.9,31.8-6.8c0.7-0.3,1.4-0.4,2.2-0.2l1.5,0.4c15.8-110.5,110.8-195.5,225.7-195.5c125.9,0,228,102.1,228,228   c0,26.6-4.6,52.2-13,76l0.1,0C1283.6,2664.7,1283.9,2664.8,1284.2,2664.8z"/><path d="M1326.8,2677.9c10.9,0,22-1.6,31.2-6.5c-2-1.2-4.1-2.6-6.1-4.2c-7.3,3.1-16.2,4.3-25.1,4.3c-10.9,0-21.9-1.7-30-3.4   c-4.1-0.9-7.5-1.7-9.9-2.4c-1.2-0.3-2.1-0.6-2.7-0.8c-0.3-0.1-0.5-0.2-0.7-0.2l-0.1,0c-0.7,2-1.5,4.1-2.2,6.1l0.3,0.1   C1283.2,2671.3,1304.6,2677.9,1326.8,2677.9z"/><path d="M842.7,2556.2l-1.5-0.4c-0.7-0.2-1.5-0.1-2.2,0.2c-10,4.9-21,6.8-31.8,6.8c-15.6,0-30.8-3.9-42.1-7.8   c-5.6-2-10.3-3.9-13.5-5.4c-0.5-0.2-1-0.5-1.4-0.7c-1.5,1.9-2.9,3.6-4.4,5c3.1,1.5,9.2,4.3,17.2,7.1c11.7,4.1,27.6,8.2,44.2,8.2   c11.1,0,22.7-1.9,33.5-6.9l1.2,0.3C842.1,2560.4,842.4,2558.3,842.7,2556.2z"/><path d="M2646.8,2637.8c7.5,0,16.4-1.5,26.6-6.2c0.2-0.1,0.5-0.2,0.7-0.2c-2.6-13.9-4-28.1-4-42.8c0-125.9,102.1-228,228-228   c125.9,0,228,102.1,228,228c0,9.3-0.6,18.5-1.7,27.5c0.2,0,0.3,0,0.5,0.1c0,0,0.1,0,0.4,0.1c0.3,0.1,0.7,0.2,1.3,0.3   c1.1,0.3,2.7,0.7,4.8,1.2c4.2,1,10.1,2.4,17.2,3.7c14.2,2.7,33.2,5.4,51.9,5.4c12.7,0,25.3-1.3,36.2-4.5c9.3-2.8,17.3-7,23.2-13   c-11-4.8-21.8-11.2-33.4-21.1c-29-24.6-62.3-69.5-114.1-159.7c-21.1-36.7-51.8-63.5-87.7-81.1c-7.5-3.7-15.3-6.9-23.2-9.8   c-30-10.9-62.6-16.2-95.7-16.2c-59.2,0-119.7,16.8-168.8,48.1c-49.1,31.3-86.6,77-100.2,134.7l0,0.1c-5.1,19.8-5.9,41.1-6.2,61.8   c0,2.1-0.1,4.1-0.1,6.2c-0.3,21.8-0.4,42.7-5.3,60.5c1,0.5,2.4,1.1,4.1,1.8C2633.4,2636.3,2639.3,2637.8,2646.8,2637.8z"/><path d="M3259.9,2609.4c-5.9,6-13.9,10.3-23.2,13c-10.9,3.3-23.5,4.5-36.2,4.5c-18.7,0-37.7-2.7-51.9-5.4   c-7.1-1.4-13.1-2.7-17.2-3.7c-2.1-0.5-3.7-0.9-4.8-1.2c-0.6-0.1-1-0.3-1.3-0.3c-0.3-0.1-0.4-0.1-0.4-0.1c-0.2,0-0.3,0-0.5-0.1   c-0.3,2.1-0.5,4.3-0.9,6.4l0.1,0c4.6,1.3,40.7,10.9,76.9,10.9c13.1,0,26.3-1.3,38-4.8c10.9-3.3,20.6-8.5,27.7-16.6   C3264.1,2611.2,3262,2610.3,3259.9,2609.4z"/><path d="M2623.3,2639.2c4.4,2.1,12.5,5,23.5,5.1c8.2,0,17.9-1.7,28.6-6.5c-0.5-2.1-0.9-4.2-1.3-6.4c-0.3,0-0.5,0.1-0.7,0.2   c-10.2,4.7-19.1,6.2-26.6,6.2c-7.5,0-13.4-1.5-17.5-3c-1.7-0.6-3.1-1.3-4.1-1.8c-0.2,0.7-0.4,1.3-0.6,2c0,0,0,0,0,0c0,0,0,0,0,0   C2624.2,2636.4,2623.8,2637.8,2623.3,2639.2z"/><path class="st5" d="M1509.3,2666.4c0,3.3,0,5.9-0.1,7.8h1004c-0.7-7.6-2.3-26.3-2.5-51.8l-1005.2-13.3   C1508.7,2634.7,1509.3,2654.8,1509.3,2666.4z"/><path class="st5" d="M1486.7,2118.9c-3.7,7.4-7.4,15-11.1,22.8c-0.6,1.3-2,2-3.4,1.8c-27.4-3.9-54.5-5.5-80.8-5.5   c-135.8,0-250.8,44.5-285.8,59.6c60.2,6.8,126.7,27.3,195,70.9c98.4,62.7,150.6,149.4,178.1,226.7c13,36.6,20.6,71.1,24.9,100   c3.1-27.5,4.4-62.4,4.4-100.9C1508,2353.6,1491.1,2166,1486.7,2118.9z"/><path class="st5" d="M1514.7,2065.1c-0.6,1.1-1.5,2.8-2.6,4.9c-2.3,4.2-5.5,10.2-9.3,17.5c-3.2,6.1-6.8,13.1-10.7,20.7   c0.4,4,2,20.8,4.3,46.3c8.5-17.9,27.1-55.9,53.7-100.6c37.1-62.4,89.5-138,151.4-190.8c16.3-13.9,39.7-25.3,68.5-34.7   c28.7-9.4,62.9-16.8,100.6-22.5c75.4-11.4,165.2-16,254.9-16c33.3,0,66.6,0.6,99.2,1.8v-39.8l-343.8-2.9   c-47.8,9.9-90.8,27.4-128.9,49.5c-52.4,30.3-95.8,69.1-130.4,107.5c-69.3,76.9-103.5,152.5-105.5,156.9l-0.1,0.2c0,0,0,0.1-0.1,0.1   c0,0.1,0,0.1-0.1,0.2C1515.7,2063.4,1515.4,2064,1514.7,2065.1z"/><path class="st5" d="M1470.7,2136.9c14.9-31,30.6-60.5,36.7-71.8c-187.5,1.5-330.7,31.3-440.1,75.5   c-52.7,21.3-97.5,45.9-135.7,72.2c34.5-10,77.1-18,125.2-18c11.6,0,23.6,0.5,35.8,1.5c11.4-5.4,140.7-64.8,298.7-64.8   C1417.2,2131.6,1443.8,2133.2,1470.7,2136.9z"/><path class="st5" d="M2828.2,1977.3c-111.3-77.2-222.7-127.1-295-146.1c-35-9.2-94.8-18-166.9-24.4c-41.8-3.7-87.7-6.7-135.4-8.5   V2602c0,1.8-1.4,3.2-3.2,3.2c-1.8,0-3.2-1.4-3.2-3.2v-803.9c-32.6-1.2-65.9-1.8-99.2-1.8c-67.1,0-134.2,2.6-195.2,8.7   c-61,6.1-115.8,15.6-158.2,29.5c-28.3,9.2-51,20.4-66.3,33.5c-59.1,50.4-109.9,122.5-146.5,183.4c-36.3,60.3-58.7,109.7-61.6,116.1   c6.6,77.9,17,216.6,17,326.9c0,41.6-1.5,79.2-5.2,108.1c0,0.1,0,0.2-0.1,0.2l1001.5,13.3c0.1-35.2,2.9-81.6,13.6-128.7   c10.9-47.9,30-96.8,62.8-135.4c32.2-37.9,77.7-76.4,131.6-105.5c54-29.1,116.6-48.8,183-48.8c68.7,0,141.5,21.1,212.7,74.5   C3042,2150.8,2935.2,2051.5,2828.2,1977.3z M1797.7,2076.2c0,1.7-1.4,3.2-3.1,3.2c0,0-38.9,1.5-80.2,1.5c-25.8,0-52.6-0.6-71.6-2.4   c-10.6-1-18.3-3.4-23.9-6.8c-5.6-3.3-9.1-7.7-10.8-12.3c-1.2-3-1.6-6-1.6-8.9c0-4.4,1-8.4,2-11.3c1-2.9,2-4.7,2.1-4.8l0,0   c0,0,10.4-19,26.5-44.3c16.1-25.2,38-56.7,61.2-81.9c21.6-23.4,43.6-36.7,61.1-44.2c3.6-1.5,7.3-2.3,10.9-2.3   c7.3,0,14.1,2.9,19.1,7.8c5,4.9,8.3,11.8,8.3,19.7V2076.2z M1856.4,2044.1v-149c0-20.3,16.4-36.7,36.7-36.7h251.9   c20.3,0,36.7,16.4,36.7,36.7v149c0,20.3-16.5,36.7-36.7,36.7h-251.9C1872.9,2080.8,1856.4,2064.4,1856.4,2044.1z M2194.5,2218.3   h-107.8c-10.8,0-19.5-8.7-19.5-19.5c0-10.8,8.7-19.5,19.5-19.5h107.8c10.8,0,19.5,8.7,19.5,19.5   C2214,2209.6,2205.2,2218.3,2194.5,2218.3z M2730.9,2067c-8.8,8.5-20.9,13.8-34.1,13.8h-381.7c-22.1,0-40-17.9-40-40v-138.3   c0-24.3,19.7-44.1,44.1-44.1h164.2c73.9,0,145.1,28.5,198.6,79.5l19.1,18.2v0c14.7,13.4,25.4,26.3,32.7,38.8   c7.3,12.6,11,24.8,11.5,36.7c0,0.7,0,1.3,0,2C2745.2,2046.6,2739.7,2058.5,2730.9,2067z"/><path class="st5" d="M3305.3,2428.7c-0.3-0.5-0.6-1.1-0.8-1.6c-2.6,5.5-4.7,8.9-4.7,8.9c-0.5,0.8-1.2,1.3-2.1,1.5   c-0.9,0.2-1.8,0-2.5-0.5c-0.1-0.1-7.9-5.7-17.8-15.3c-9.8-9.6-21.7-23-29.7-38.7c-5.3-10.5-9-22-9-34.1c0-3.6,0.3-7.3,1-11   c0.2-0.9,0.7-1.6,1.4-2.1c0.2-0.1,3.7-2.4,9.5-4.4c-7.5-12.2-15.6-24.8-24.1-37.7c-68.5-103.9-169.2-229.8-303.7-343.2   c-104.4-88-232.8-142.3-368.1-174.6c-38.3-9.1-77.1-16.5-116-22.4l-207.8-1.7v40c47.9,1.8,94,4.8,135.9,8.5   c72.3,6.5,132.3,15.2,168,24.6c73.3,19.3,185.1,69.5,297,147.1c111.7,77.5,223.5,182.4,296.7,311.3c41.9,35.2,73.9,67,99.7,93.8   c27.6,28.7,48,51.6,65.8,66.6c9.4,7.9,18,13.5,26.4,16.8C3316.2,2451,3311.2,2440.4,3305.3,2428.7z"/><path class="st4" d="M3354.1,2617.4c-0.2,0.2-0.4,0.4-0.6,0.6C3353.7,2617.8,3353.9,2617.6,3354.1,2617.4z"/><path class="st4" d="M3360.8,2606.5c0.2-0.6,0.4-1.2,0.6-1.8c0,0,0,0,0,0C3361.2,2605.3,3361,2605.9,3360.8,2606.5z"/><path class="st4" d="M3350.3,2620.7c-0.3,0.2-0.6,0.4-0.9,0.6C3349.7,2621.1,3350,2620.9,3350.3,2620.7z"/><path class="st4" d="M3304.5,2427.1c0.3,0.5,0.6,1.1,0.8,1.6c5.8,11.6,10.9,22.3,15.1,31.8c2.2,0.9,4.4,1.6,6.6,2.1   c0.5,0.1,1.1,0.3,1.6,0.4c-2.5-5.7-5.3-11.9-8.4-18.5c-2.7-5.8-5.7-11.8-8.9-18.2c-1.1-2.2-2.2-4.5-3.4-6.7c0,0,0,0,0,0.1   C3306.7,2422.4,3305.6,2424.9,3304.5,2427.1z"/><path class="st4" d="M3359.8,2609c-0.9,2-2,3.8-3.2,5.5C3357.8,2612.8,3358.9,2611,3359.8,2609z"/><path class="st4" d="M3355.8,2615.4c-0.2,0.3-0.4,0.5-0.6,0.7C3355.4,2615.9,3355.6,2615.7,3355.8,2615.4z"/><path class="st4" d="M3352.3,2619.1c-0.2,0.2-0.5,0.4-0.7,0.6C3351.8,2619.5,3352.1,2619.3,3352.3,2619.1z"/><path class="st4" d="M3359.9,2608.8c0.2-0.5,0.4-1.1,0.7-1.6c-0.2,0.6-0.5,1.2-0.7,1.8C3359.8,2608.9,3359.8,2608.9,3359.9,2608.8z   "/><path class="st4" d="M3334.3,2626.3c-0.2,0-0.4,0-0.7,0.1C3333.9,2626.3,3334.1,2626.3,3334.3,2626.3z"/><path class="st4" d="M3342.2,2624.7c-0.2,0.1-0.4,0.1-0.5,0.2C3341.9,2624.8,3342.1,2624.8,3342.2,2624.7z"/><path class="st4" d="M3345.4,2623.5c0.1-0.1,0.2-0.1,0.3-0.2c-0.2,0.1-0.5,0.2-0.8,0.3C3345.1,2623.6,3345.2,2623.6,3345.4,2623.5z   "/><path class="st4" d="M2540.4,2680.6c2.3,0.1,4.5,0.1,6.7,0.1c14.2,0,26-1.5,35.9-4.4c8.6-2.5,15.8-6.1,21.6-10.6   c9.1-7,14.9-16.1,18.7-26.5c0.5-1.4,1-2.8,1.4-4.2c0,0,0,0,0,0c-3.6,12.1-9.8,22.8-20.1,30.7c-5.9,4.5-13,8.1-21.6,10.6   c-9.9,2.9-21.7,4.4-35.9,4.4C2544.9,2680.7,2542.7,2680.7,2540.4,2680.6l-22.8,0c0,0,0,0,0,0H2540.4z"/><path class="st4" d="M3348.1,2622.1c-0.3,0.2-0.6,0.4-1,0.5C3347.5,2622.5,3347.8,2622.3,3348.1,2622.1z"/><path class="st4" d="M3338.2,2625.7c-0.1,0-0.3,0-0.4,0.1C3337.9,2625.8,3338.1,2625.8,3338.2,2625.7z"/><path class="st4" d="M912.5,2218.8c6.1-2,12.5-4.1,19.2-6c38.2-26.4,83-51,135.7-72.2c109.4-44.2,252.6-74,440.1-75.5   c1.7-3.1,2.6-4.8,2.6-4.8c0.9-1.6,2.8-2.1,4.4-1.3c1.5,0.8,2.1,2.7,1.3,4.2c0,0,0-0.1,0.1-0.1l0.1-0.2c2-4.4,36.2-80.1,105.5-156.9   c34.6-38.4,78-77.2,130.4-107.5c38.1-22.1,81-39.7,128.9-49.5l-11.2-0.1c0,1.8-1.4,3.2-3.2,3.2c-1.8,0-3.2-1.4-3.2-3.2v-2.5   c-43.1,10.7-82.1,27.5-117.1,48c-80.5,47.3-139.5,113.8-178.4,168.5c-34.2,48-52.8,86.9-56.9,95.8   c-192.8,1.2-339.5,32.2-451.1,78.2c-58.3,24-107,52.2-147.7,82.2c0.1,0,0.3-0.1,0.4-0.1C912.4,2218.9,912.4,2218.8,912.5,2218.8z"/><path class="st4" d="M2486.8,1757.3c-1.6,0-2.9-1.2-3.2-2.7c-1.1-0.2-2.1-0.4-3.2-0.6l-41.7-0.3c38.9,5.9,77.8,13.2,116,22.4   c135.2,32.3,263.7,86.6,368.1,174.6c134.5,113.4,235.2,239.3,303.7,343.2c8.5,12.9,16.6,25.6,24.1,37.7c1.9-0.7,4.1-1.3,6.5-1.8   c-15.4-25-32.9-51.7-52.5-79.6c-24-34.1-51.2-70-81.6-106.5c-0.9-1.1-1.8-2.2-2.7-3.3c-27.2-32.5-56.9-65.5-89.2-98.2   c-1-1-2-2-3-3.1c-21.7-21.9-44.5-43.6-68.4-65c-1.1-1-2.3-2-3.5-3.1c-9.5-8.5-19.2-16.9-29.1-25.3   c-105.4-88.9-234.8-143.5-370.7-175.9c-22.1-5.3-44.3-9.9-66.7-14.1C2489,1756.6,2488,1757.3,2486.8,1757.3z"/><path class="st4" d="M750.1,2548.9c2.3-2.9,4.5-6.3,6.8-10.4l0.1-0.2c6.5-13.5,18.2-33.3,33.6-55.3c23.2-33.1,54.9-71.1,90.7-100.8   c17.9-14.8,36.9-27.6,56.2-36.6c19.4-9,39.1-14.3,58.8-14.3c1.3,0,2.6,0,3.8,0.1l0.1,0c31.2,0.2,59.3,3,84.7,7.7   c-25.3-4.7-53.4-7.5-84.7-7.7l-0.1,0c-1.3,0-2.6-0.1-3.8-0.1c-19.7,0-39.4,5.3-58.8,14.3c-19.4,9-38.3,21.8-56.2,36.6   c-35.8,29.7-67.6,67.8-90.7,100.8c-15.4,22-27.1,41.8-33.6,55.3l-0.1,0.2c-5,9-10.1,15-15.1,18.9c-5,3.8-10,5.4-14.6,5.4   c-3,0-5.8-0.7-8.2-1.7c-2.4-1-4.5-2.3-6.2-3.6c-3.4-2.6-5.3-5-5.4-5.2c-0.2-0.3-0.4-0.6-0.5-1c0,0,0,0,0,0c0.1,0.4,0.3,0.7,0.5,1.1   c0.1,0.2,2,2.6,5.4,5.2c1.7,1.3,3.7,2.6,6.2,3.6c2.4,1,5.2,1.7,8.2,1.7c4.5,0,9.6-1.5,14.6-5.4c1.3-1,2.6-2.1,3.9-3.4   C747.2,2552.5,748.7,2550.8,750.1,2548.9z"/><path class="st4" d="M2636.8,2504.4c13.6-57.8,51.1-103.4,100.2-134.7c49-31.3,109.6-48.1,168.8-48.1c33.1,0,65.7,5.3,95.7,16.2   c-30-10.9-62.6-16.2-95.7-16.2c-59.2,0-119.7,16.8-168.8,48.1C2687.9,2401,2650.4,2446.7,2636.8,2504.4L2636.8,2504.4   c-5.1,19.9-5.9,41.2-6.2,61.9C2630.9,2545.6,2631.7,2524.3,2636.8,2504.4L2636.8,2504.4z"/><path class="st4" d="M1509.1,2677.5c-0.1,1.7-1.5,3-3.2,3h-122.6l-0.3,0c-0.3,0-9-0.9-20.1-6.5c-11-5.6-24.4-16.1-33.5-35.1   c-6-12.6-10.2-29-10.7-50c-1.8-13.5-5.1-34.7-12.6-59.3c7.5,24.6,10.8,45.8,12.6,59.3c0.5,21,4.7,37.4,10.7,50   c6.2,13,14.4,22.1,22.6,28.3c2.1,1.6,4.1,3,6.1,4.2c1.6,1,3.2,1.9,4.8,2.7c11,5.6,19.8,6.5,20,6.5l0.3,0H2516   c-1.3-0.3-2.3-1.4-2.4-2.8c0,0,0,0,0,0c0-0.4-0.2-1.6-0.4-3.6h-1004C1509.1,2676.3,1509.1,2677.5,1509.1,2677.5z"/><path d="M2224.5,1731.6c0-1.8,1.4-3.2,3.2-3.2c1.8,0,3.2,1.4,3.2,3.2v20.2l207.8,1.7l41.7,0.3l3.2,0v-81.9   c-5.7,2.4-11.9,3.7-18.5,3.7h-115.9c-26.7,0-48.3-21.6-48.3-48.3v-9.4h-19.7c-2.8,32.3-29.9,57.7-63,57.7h-4.3v54.5   c0,1.8-1.4,3.2-3.2,3.2c-1.8,0-3.2-1.4-3.2-3.2v-54.5h-234.2c-32.8,0-59.7-25-62.9-56.9c-10.2,1.8-19.3,6.8-26.3,13.8   c-9,9-14.6,21.4-14.6,35.2v81h0c0,0,0,0,0,0l11.2,0.1l343.8,2.9V1731.6z"/><path d="M2281.2,1618h19.7v-6.4h-19.4v0.9C2281.5,1614.4,2281.4,1616.2,2281.2,1618z"/><path d="M1866.3,1752.1c1.8,0,3.2-1.4,3.2-3.2c0,0,0,0,0,0h0v-81c0-13.8,5.6-26.2,14.6-35.2c7-7,16.1-11.9,26.3-13.8   c-0.2-2.1-0.3-4.2-0.3-6.3v-0.2c-26.7,4.4-47,27.5-47,55.4v78.5v2.5C1863.1,1750.6,1864.5,1752.1,1866.3,1752.1z"/><path d="M2483.6,1672.1v81.9v0c0,0.2,0,0.4,0.1,0.5c0.3,1.5,1.6,2.7,3.2,2.7c1.2,0,2.2-0.6,2.8-1.6c0.3-0.5,0.5-1,0.5-1.6l0-85.2   C2488,1670.1,2485.8,1671.2,2483.6,1672.1z"/><path class="st6" d="M1106.7,2813.4c80.1-13.5,146-68.8,174.5-142.7c0.8-2,1.5-4,2.2-6.1c8.4-23.8,13-49.3,13-76   c0-125.9-102.1-228-228-228c-114.9,0-209.9,85-225.7,195.5c-0.3,2.1-0.6,4.3-0.8,6.4c-1,8.5-1.5,17.2-1.5,26   c0,112.9,82,206.5,189.7,224.7c12.5,2.1,25.2,3.2,38.3,3.2C1081.4,2816.6,1094.2,2815.5,1106.7,2813.4z M935.5,2588.6   c0-73.4,59.5-132.8,132.9-132.8c73.4,0,132.9,59.5,132.9,132.8c0,73.4-59.5,132.8-132.9,132.8C995,2721.5,935.5,2662,935.5,2588.6z   "/><path d="M1068.4,2715c34.9,0,66.5-14.1,89.4-37c22.9-22.9,37-54.5,37-89.4c0-34.9-14.1-66.5-37-89.4c-22.9-22.9-54.5-37-89.4-37   c-34.9,0-66.5,14.1-89.4,37c-22.9,22.9-37,54.5-37,89.4c0,34.9,14.1,66.5,37,89.4C1001.9,2700.9,1033.4,2715,1068.4,2715z    M957.4,2588.6c0-61.3,49.7-111,111-111c61.3,0,111,49.7,111,111c0,61.3-49.7,111-111,111C1007.1,2699.6,957.4,2649.9,957.4,2588.6   z"/><path d="M1201.2,2588.6c0-73.4-59.5-132.8-132.9-132.8c-73.4,0-132.9,59.5-132.9,132.8c0,73.4,59.5,132.8,132.9,132.8   C1141.7,2721.5,1201.2,2662,1201.2,2588.6z M979,2499.2c22.9-22.9,54.5-37,89.4-37c34.9,0,66.5,14.1,89.4,37   c22.9,22.9,37,54.5,37,89.4c0,34.9-14.1,66.5-37,89.4c-22.9,22.9-54.5,37-89.4,37c-34.9,0-66.5-14.1-89.4-37   c-22.9-22.9-37-54.5-37-89.4C941.9,2553.7,956.1,2522.1,979,2499.2z"/><path class="st5" d="M994.4,2662.5c18.9,18.9,45,30.6,73.9,30.6c28.9,0,55-11.7,73.9-30.6c18.9-18.9,30.6-45,30.6-73.9   c0-28.9-11.7-55-30.6-73.9c-18.9-18.9-45-30.6-73.9-30.6c-28.9,0-55,11.7-73.9,30.6c-18.9,18.9-30.6,45-30.6,73.9   C963.8,2617.5,975.5,2643.6,994.4,2662.5z"/><path class="st4" d="M1068.4,2699.6c61.3,0,111-49.7,111-111c0-61.3-49.7-111-111-111c-61.3,0-111,49.7-111,111   C957.4,2649.9,1007.1,2699.6,1068.4,2699.6z M963.8,2588.6c0-28.9,11.7-55,30.6-73.9c18.9-18.9,45-30.6,73.9-30.6   c28.9,0,55,11.7,73.9,30.6c18.9,18.9,30.6,45,30.6,73.9c0,28.9-11.7,55-30.6,73.9c-18.9,18.9-45,30.6-73.9,30.6   c-28.9,0-55-11.7-73.9-30.6C975.5,2643.6,963.8,2617.5,963.8,2588.6z"/><path class="st6" d="M3124.4,2616.1c1.1-9,1.7-18.2,1.7-27.5c0-125.9-102.1-228-228-228c-125.9,0-228,102.1-228,228   c0,14.6,1.4,28.9,4,42.8c0.4,2.1,0.8,4.2,1.3,6.4c19.8,90.1,92.8,160.1,184.4,175.6c12.4,2.1,25.2,3.2,38.3,3.2   c13,0,25.8-1.1,38.3-3.2c96.7-16.4,172.7-93.6,187.2-190.9C3123.9,2620.4,3124.2,2618.2,3124.4,2616.1z M2898.1,2721.5   c-73.4,0-132.9-59.5-132.9-132.8c0-73.4,59.5-132.8,132.9-132.8c73.4,0,132.9,59.5,132.9,132.8   C3030.9,2662,2971.4,2721.5,2898.1,2721.5z"/><path d="M3024.5,2588.6c0-34.9-14.1-66.5-37-89.4c-22.9-22.9-54.5-37-89.4-37c-34.9,0-66.5,14.1-89.4,37   c-22.9,22.9-37,54.5-37,89.4c0,34.9,14.1,66.5,37,89.4c22.9,22.9,54.5,37,89.4,37c34.9,0,66.5-14.1,89.4-37   C3010.4,2655.1,3024.5,2623.5,3024.5,2588.6z M2898.1,2699.6c-61.3,0-111-49.7-111-111c0-61.3,49.7-111,111-111   c61.3,0,111,49.7,111,111C3009.1,2649.9,2959.4,2699.6,2898.1,2699.6z"/><path d="M3030.9,2588.6c0-73.4-59.5-132.8-132.9-132.8c-73.4,0-132.9,59.5-132.9,132.8c0,73.4,59.5,132.8,132.9,132.8   C2971.4,2721.5,3030.9,2662,3030.9,2588.6z M2898.1,2715c-34.9,0-66.5-14.1-89.4-37c-22.9-22.9-37-54.5-37-89.4   c0-34.9,14.1-66.5,37-89.4c22.9-22.9,54.5-37,89.4-37c34.9,0,66.5,14.1,89.4,37c22.9,22.9,37,54.5,37,89.4   c0,34.9-14.1,66.5-37,89.4C2964.6,2700.9,2933,2715,2898.1,2715z"/><path class="st5" d="M3002.6,2588.6c0-28.9-11.7-55-30.6-73.9c-18.9-18.9-45-30.6-73.9-30.6c-28.9,0-55,11.7-73.9,30.6   c-18.9,18.9-30.6,45-30.6,73.9c0,28.9,11.7,55,30.6,73.9c18.9,18.9,45,30.6,73.9,30.6c28.9,0,55-11.7,73.9-30.6   C2990.9,2643.6,3002.6,2617.5,3002.6,2588.6z"/><path class="st4" d="M3009.1,2588.6c0-61.3-49.7-111-111-111c-61.3,0-111,49.7-111,111c0,61.3,49.7,111,111,111   C2959.4,2699.6,3009.1,2649.9,3009.1,2588.6z M2898.1,2693.2c-28.9,0-55-11.7-73.9-30.6c-18.9-18.9-30.6-45-30.6-73.9   c0-28.9,11.7-55,30.6-73.9c18.9-18.9,45-30.6,73.9-30.6c28.9,0,55,11.7,73.9,30.6c18.9,18.9,30.6,45,30.6,73.9   c0,28.9-11.7,55-30.6,73.9C2953.1,2681.5,2927,2693.2,2898.1,2693.2z"/><path class="st3" d="M914.6,2224.9c0,0-0.1,0-0.1,0c-44.1,14.9-70.9,31.4-72.3,32.4l0,0l-0.2,0.1c-0.1,0.1-0.4,0.3-0.6,0.5   c-0.6,0.4-1.4,1-2.5,1.8c-2.2,1.6-5.4,4.1-9.3,7.3c-7.9,6.4-18.8,15.8-31,27.9c-24.3,24.2-53.5,59-72.8,101.2   c-12.9,28.2-21.5,59.7-21.5,93.6c0,18.9,2.7,38.7,8.8,59c0.1,0.1,0.1,0.1,0.2,0.2c0.4,0.5,1,1.1,1.8,1.8c1.6,1.4,3.8,3.1,6.5,4.2   c1.8,0.7,3.7,1.2,5.8,1.2c3.1,0,6.6-1,10.7-4.1c4.1-3.1,8.6-8.4,13.3-16.8c10.1-20.9,31.6-55.5,60.2-90.7   c28.7-35.3,64.6-71.2,103.6-94.5c26-15.5,53.5-25.4,81.3-25.4c1.3,0,2.6,0,4,0.1v0c70.1,0.5,125,13.5,168.1,33.7   c43.1,20.2,74.3,47.6,96.9,76.8c45.1,58.4,55.9,123.6,59.8,152.9l0,0.3c0.5,20.2,4.4,35.6,9.9,47.3c5.6,11.7,12.7,19.8,19.9,25.5   c13.6,10.8,27.1,12.7,28.5,12.8h119.3c0.1-1.8,0.1-4.4,0.1-7.8c0-25.4-2.9-92.7-30.1-169c-27.2-76.3-78.6-161.6-175.5-223.4   c-86.4-55.1-169.3-72.7-240.3-72.7C1000.4,2201.3,951.4,2212.5,914.6,2224.9z"/><polygon class="st3" points="712.7,2548.4 712.7,2548.4 712.7,2548.4  "/><path class="st4" d="M707.5,2552.3c0.1,0.2,2,2.6,5.4,5.2c1.7,1.3,3.7,2.6,6.2,3.6c2.4,1,5.2,1.7,8.2,1.7c4.5,0,9.6-1.5,14.6-5.4   c5-3.8,10.1-9.8,15.1-18.9l0.1-0.2c6.5-13.5,18.2-33.3,33.6-55.3c23.2-33.1,54.9-71.1,90.7-100.8c17.9-14.8,36.9-27.6,56.2-36.6   c19.4-9,39.1-14.3,58.8-14.3c1.3,0,2.6,0,3.8,0.1l0.1,0c31.2,0.2,59.3,3,84.7,7.7c30.9,5.8,57.6,14.5,80.8,25.4   c63.2,29.6,99.9,74.9,121.7,118.3c8.2,16.3,14.2,32.2,18.7,47c7.5,24.6,10.8,45.8,12.6,59.3c0.5,21,4.7,37.3,10.7,50   c9.1,19,22.4,29.5,33.5,35.1c11,5.6,19.8,6.5,20.1,6.5l0.3,0h122.6c1.7,0,3.1-1.3,3.2-3c0,0,0.1-1.2,0.1-3.4   c0.1-1.9,0.1-4.5,0.1-7.8c0-11.6-0.6-31.7-3.8-57.3l-3.7,0c-1.8,0-3.2-1.5-3.2-3.3c0-1.8,1.5-3.2,3.3-3.2l1,0c-0.1-0.3-0.1-0.6,0-1   c0.3-2.1,0.5-4.2,0.8-6.4c-4.3-28.9-11.8-63.4-24.9-100c-27.5-77.3-79.7-163.9-178.1-226.7c-68.4-43.6-134.8-64.1-195-70.9   c-5.8,2.5-9.4,4.2-10.6,4.7c-0.3,0.1-0.4,0.2-0.4,0.2l0,0c-1.6,0.8-3.5,0.1-4.3-1.5c-0.8-1.6-0.1-3.5,1.5-4.3c0,0,0.3-0.1,0.8-0.4   c-12.2-1-24.2-1.5-35.8-1.5c-48.1,0-90.7,8-125.2,18c-6.7,1.9-13.1,3.9-19.2,6c0,0-0.1,0-0.1,0.1c-0.1,0-0.3,0.1-0.4,0.1   c-45.9,15.5-73.2,32.8-73.3,32.9l-0.1,0.1c-0.1,0.1-35.2,24.5-70.3,66.4c-17.6,20.9-35.1,46.2-48.4,75.1   c-13.2,28.8-22.1,61.2-22.1,96.3c0,19.7,2.8,40.3,9.2,61.4c0,0,0,0,0,0C707.1,2551.6,707.3,2552,707.5,2552.3z M712.7,2548.4   L712.7,2548.4L712.7,2548.4L712.7,2548.4z M1297.2,2274c96.9,61.8,148.3,147.1,175.5,223.4c27.2,76.3,30.2,143.6,30.1,169   c0,3.3-0.1,5.9-0.1,7.8h-119.3c-1.4-0.2-14.9-2.1-28.5-12.8c-7.1-5.7-14.3-13.8-19.9-25.5c-5.5-11.7-9.5-27.1-9.9-47.3l0-0.3   c-3.9-29.2-14.6-94.5-59.8-152.9c-22.6-29.2-53.8-56.6-96.9-76.8c-43.1-20.2-98-33.2-168.1-33.7v0c-1.3,0-2.6-0.1-4-0.1   c-27.8,0-55.3,9.9-81.3,25.4c-39,23.3-74.9,59.2-103.6,94.5c-28.6,35.2-50.1,69.8-60.2,90.7c-4.7,8.5-9.3,13.7-13.3,16.8   c-4.1,3.1-7.6,4-10.7,4.1c-2.1,0-4-0.5-5.8-1.2c-2.7-1.1-4.9-2.8-6.5-4.2c-0.8-0.7-1.4-1.4-1.8-1.8c-0.1-0.1-0.1-0.2-0.2-0.2   c-6.1-20.4-8.8-40.1-8.8-59c0-33.9,8.6-65.4,21.5-93.6c19.4-42.3,48.5-77,72.8-101.2c12.2-12.1,23.1-21.5,31-27.9   c3.9-3.2,7.1-5.6,9.3-7.3c1.1-0.8,1.9-1.4,2.5-1.8c0.3-0.2,0.5-0.4,0.6-0.5l0.2-0.1l0,0c1.5-0.9,28.2-17.5,72.3-32.4   c0,0,0.1,0,0.1,0c36.8-12.4,85.8-23.6,142.3-23.6C1127.9,2201.3,1210.8,2218.9,1297.2,2274z"/><path d="M1472.2,2143.5c1.4,0.2,2.7-0.5,3.4-1.8c3.7-7.8,7.5-15.4,11.1-22.8c-0.4-3.8-0.6-6.7-0.8-8.5c-0.2-1.7-0.3-2.5-0.3-2.6   l0,0c-0.2-1.8,1.1-3.3,2.9-3.5c1.8-0.2,3.3,1.1,3.5,2.9c0,0,0,0.3,0.1,0.9c3.8-7.5,7.5-14.6,10.7-20.7c3.8-7.3,7.1-13.3,9.3-17.5   c1.1-2.1,2-3.8,2.6-4.9c0.6-1.1,0.9-1.7,0.9-1.7c0-0.1,0-0.1,0.1-0.2c0.7-1.5,0.2-3.4-1.3-4.2c-1.6-0.9-3.5-0.3-4.4,1.3   c0,0-1,1.7-2.6,4.8c-6.1,11.3-21.8,40.7-36.7,71.8c-27-3.7-53.5-5.3-79.4-5.3c-157.9,0-287.3,59.4-298.7,64.8   c-0.5,0.2-0.8,0.4-0.8,0.4c-1.6,0.8-2.3,2.7-1.5,4.3c0.8,1.6,2.7,2.3,4.3,1.5l0,0c0,0,0.1-0.1,0.4-0.2c1.1-0.5,4.7-2.2,10.6-4.7   c35-15.1,149.9-59.6,285.8-59.6C1417.7,2138,1444.7,2139.7,1472.2,2143.5z"/><path d="M1509.2,2602.7c0-0.1,0-0.2,0.1-0.2c3.7-28.9,5.2-66.5,5.2-108.1c0-110.3-10.3-249.1-17-326.9c0,0.1-0.1,0.1-0.1,0.2   c-0.2,0.4-0.2,0.6-0.2,0.6h0c-0.7,1.6-2.6,2.4-4.2,1.6c-1.6-0.7-2.4-2.6-1.6-4.2c0,0,1.8-4,5.1-11.1c-2.2-25.5-3.9-42.3-4.3-46.3   c-0.1-0.6-0.1-0.9-0.1-0.9c-0.2-1.8-1.8-3.1-3.5-2.9c-1.8,0.2-3.1,1.8-2.9,3.5l0,0c0,0,0.1,0.9,0.3,2.6c0.2,1.9,0.5,4.8,0.8,8.5   c4.5,47,21.3,234.7,21.3,375.4c0,38.4-1.3,73.4-4.4,100.9c-0.2,2.2-0.5,4.3-0.8,6.4c0,0.3,0,0.7,0,1L1509.2,2602.7z"/><path class="st4" d="M2227.7,2605.2c1.8,0,3.2-1.4,3.2-3.2v-803.7c-2.1-0.1-4.3-0.2-6.4-0.2V2602   C2224.5,2603.8,2225.9,2605.2,2227.7,2605.2z"/><path class="st4" d="M2230.9,1731.6c0-1.8-1.4-3.2-3.2-3.2c-1.8,0-3.2,1.4-3.2,3.2v20.2v39.8c2.1,0.1,4.3,0.2,6.4,0.2v-40V1731.6z"/><path d="M1502.9,2602.6l-1,0c-1.8,0-3.2,1.4-3.3,3.2c0,1.8,1.4,3.2,3.2,3.3l3.7,0l1005.2,13.3c0-1.5,0-3.1,0-4.7c0-0.6,0-1.2,0-1.8   l-1001.5-13.3L1502.9,2602.6z"/><path class="st3" d="M3325.5,2468.9c-12-2.9-23.4-9.9-35.6-20.2c-12.2-10.3-25.4-24-41-40.4c-31.1-32.8-71.9-76.8-133.5-127.5   c-71.7-55.2-144.7-76.8-213.6-76.8c-65.1,0-126.7,19.3-179.9,48c-53.2,28.7-98.1,66.8-129.8,104c-31.9,37.5-50.7,85.3-61.4,132.6   c-10.8,47.3-13.5,94-13.5,129.1c0,28.3,1.8,49.1,2.5,56.4h20.7l0.1,0c2.2,0.1,4.4,0.1,6.6,0.1c17.4,0,30.7-2.4,40.9-6.5   c10.2-4.2,17.3-10,22.4-17.3c3.4-4.9,6-10.4,7.9-16.6c2.6-8.2,3.9-17.5,4.7-27.4c1-13.3,0.9-27.8,1.2-42.8   c0.3-20,1.3-40.8,6.4-60.6l0,0c0,0,0,0,0-0.1c0,0,0,0,0,0l0,0c14.1-59.6,52.8-106.6,103-138.6c50.2-32,111.8-49.1,172.2-49.1   c42.7,0,84.9,8.6,121.8,26.7c36.9,18.1,68.7,45.7,90.5,83.6c29.1,50.6,52.2,86.8,71.9,113c19.7,26.2,35.9,42.3,50.9,53   c10,7.1,19.6,11.7,29.5,15.3c13.2,4.7,27.2,7.5,43.5,11.4c6,1.4,11.2,2,15.7,2c7.6,0,13.1-1.8,17.2-4.8c4.1-3,6.9-7.4,8.7-13.1   c0.1-0.4,0.3-0.7,0.6-1c2.5-3.2,4.7-7.1,6.4-11.6c-13.1-2-26.7-5.3-40.5-10.3c-0.6-0.2-1.1-0.6-1.5-1.1c-12.4-16.3-19-38-19-58.9   c0-11.8,2.1-23.5,6.6-33.7c0.4-0.8,1.1-1.5,1.9-1.8c7-2.3,17.2-5.3,29.3-8.2C3335.1,2472.4,3330.5,2470.1,3325.5,2468.9z"/><path class="st4" d="M3362.4,2589.6c-1.8,4.5-3.9,8.4-6.4,11.6c-0.3,0.3-0.4,0.7-0.6,1c-1.8,5.7-4.6,10.1-8.7,13.1   c-4.1,3-9.6,4.8-17.2,4.8c-4.5,0-9.7-0.6-15.7-2c-16.4-3.8-30.3-6.6-43.5-11.4c-9.9-3.6-19.5-8.2-29.5-15.3   c-15.1-10.6-31.2-26.8-50.9-53c-19.7-26.2-42.9-62.4-71.9-113c-21.8-37.9-53.5-65.5-90.5-83.6c-36.9-18.1-79.1-26.7-121.8-26.7   c-60.4,0-122,17.1-172.2,49.1c-50.2,32-88.9,79-103,138.6l0,0c0,0,0,0,0,0c0,0,0,0,0,0.1l0,0c-5.1,19.8-6,40.6-6.4,60.6   c-0.2,15-0.2,29.5-1.2,42.8c-0.8,10-2.1,19.2-4.7,27.4c-1.9,6.2-4.5,11.7-7.9,16.6c-5.2,7.3-12.2,13.2-22.4,17.3   c-10.2,4.2-23.5,6.5-40.9,6.5c-2.1,0-4.3,0-6.6-0.1l-0.1,0h-20.7c-0.7-7.4-2.5-28.1-2.5-56.4c0-35.1,2.7-81.8,13.5-129.1   c10.7-47.3,29.5-95.1,61.4-132.6c31.7-37.3,76.6-75.3,129.8-104c53.2-28.7,114.8-48,179.9-48c68.9,0,141.9,21.6,213.6,76.8   c61.6,50.6,102.4,94.6,133.5,127.5c15.6,16.4,28.7,30.1,41,40.4c12.2,10.3,23.6,17.4,35.6,20.2c5,1.2,9.6,3.5,13.8,6.8   c2.5-0.6,5.1-1.2,7.8-1.7c-5.3-5.1-11.5-8.9-18.5-10.9c-0.5-0.2-1.1-0.3-1.6-0.4c-2.2-0.5-4.4-1.3-6.6-2.1   c-8.4-3.3-17-8.9-26.4-16.8c-17.8-15-38.2-37.9-65.8-66.6c-25.8-26.8-57.7-58.6-99.7-93.8c0.1,0.2,0.2,0.3,0.3,0.5   c0.9,1.5,0.3,3.5-1.2,4.4c-1.5,0.9-3.5,0.3-4.4-1.2c-2.9-5-5.8-10-8.8-15c-71.2-53.4-144-74.5-212.7-74.5   c-66.4,0-129,19.7-183,48.8c-54,29.1-99.4,67.6-131.6,105.5c-32.8,38.6-51.9,87.4-62.8,135.4c-10.7,47.2-13.5,93.5-13.6,128.7   c0,0.6,0,1.2,0,1.8c0,1.6,0,3.1,0,4.7c0.2,25.5,1.7,44.2,2.5,51.8c0.2,2,0.3,3.2,0.4,3.6c0,0,0,0,0,0c0-0.1,0-0.2,0-0.3v-0.1   c0-1.8,1.4-3.2,3.2-3.2c1.8,0,3.2,1.4,3.2,3.2v0.1c0,1.5-1,2.8-2.4,3.1h22.8c2.3,0.1,4.5,0.1,6.7,0.1c14.2,0,26-1.5,35.9-4.4   c8.6-2.5,15.8-6.1,21.6-10.6c10.3-7.9,16.4-18.6,20.1-30.7c0,0,0,0,0,0c0.2-0.7,0.4-1.3,0.6-2c4.9-17.8,5-38.7,5.3-60.5   c0-2.1,0-4.1,0.1-6.2c0.3-20.7,1.1-42,6.2-61.8l0-0.1c13.6-57.8,51.1-103.4,100.2-134.7c49-31.3,109.6-48.1,168.8-48.1   c33.1,0,65.8,5.3,95.7,16.2c7.9,2.9,15.7,6.2,23.2,9.8c35.9,17.6,66.6,44.3,87.7,81.1c51.8,90.1,85.1,135.1,114.1,159.7   c11.5,9.8,22.4,16.3,33.4,21.1c2.1,0.9,4.2,1.8,6.3,2.6c0.7,0.3,1.3,0.5,2,0.8c13.8,5,28,7.8,44.2,11.6c6.3,1.5,12,2.2,17.2,2.2   c1.4,0,2.8-0.1,4.1-0.2c0.2,0,0.4,0,0.7-0.1c1.2-0.1,2.3-0.3,3.4-0.5c0.1,0,0.3,0,0.4-0.1c1.2-0.2,2.4-0.5,3.5-0.9   c0.2-0.1,0.4-0.1,0.5-0.2c0.9-0.3,1.8-0.6,2.7-1c0.3-0.1,0.5-0.2,0.8-0.3c0.5-0.2,1-0.5,1.4-0.7c0.3-0.2,0.7-0.3,1-0.5   c0.4-0.3,0.9-0.5,1.3-0.8c0.3-0.2,0.6-0.4,0.9-0.6c0.1-0.1,0.2-0.1,0.3-0.2c0.3-0.2,0.6-0.5,0.9-0.8c0.2-0.2,0.5-0.4,0.7-0.6   c0.4-0.4,0.8-0.8,1.2-1.2c0.2-0.2,0.4-0.4,0.6-0.6c0.4-0.4,0.7-0.8,1.1-1.2c0.2-0.2,0.4-0.5,0.6-0.7c0.2-0.3,0.5-0.6,0.7-0.9   c1.2-1.7,2.3-3.5,3.2-5.5c0,0,0,0,0-0.1c0.3-0.6,0.5-1.2,0.7-1.8c0.1-0.2,0.2-0.4,0.3-0.7c0.2-0.6,0.4-1.2,0.6-1.8c0,0,0,0,0,0   c3.1-4,5.6-8.8,7.6-14.2C3366.8,2590.2,3364.6,2590,3362.4,2589.6z"/><path d="M2516,2680.6c0.2,0.1,0.5,0.1,0.8,0.1s0.5,0,0.8-0.1c0,0,0,0,0,0c1.4-0.4,2.4-1.6,2.4-3.1v-0.1c0-1.8-1.4-3.2-3.2-3.2   c-1.8,0-3.2,1.4-3.2,3.2v0.1c0,0.1,0,0.2,0,0.3C2513.7,2679.1,2514.7,2680.3,2516,2680.6z"/><path d="M2203.7,2189.5c-2.4-2.4-5.6-3.8-9.2-3.8h-107.8c-3.6,0-6.9,1.5-9.2,3.8c-2.4,2.4-3.8,5.6-3.8,9.2c0,3.6,1.5,6.9,3.8,9.2   c2.4,2.4,5.6,3.8,9.2,3.8h107.8c3.6,0,6.9-1.5,9.2-3.8c2.4-2.4,3.8-5.6,3.8-9.2C2207.5,2195.2,2206.1,2191.9,2203.7,2189.5z"/><path d="M2194.5,2179.3h-107.8c-10.8,0-19.5,8.7-19.5,19.5c0,10.8,8.7,19.5,19.5,19.5h107.8c10.8,0,19.5-8.7,19.5-19.5   C2214,2188,2205.2,2179.3,2194.5,2179.3z M2194.5,2211.8h-107.8c-3.6,0-6.9-1.5-9.2-3.8c-2.4-2.4-3.8-5.6-3.8-9.2   c0-3.6,1.5-6.9,3.8-9.2c2.4-2.4,5.6-3.8,9.2-3.8h107.8c3.6,0,6.9,1.5,9.2,3.8c2.4,2.4,3.8,5.6,3.8,9.2c0,3.6-1.5,6.9-3.8,9.2   C2201.3,2210.4,2198.1,2211.8,2194.5,2211.8z"/><path d="M1791.3,2073.1v-183.9c0-6.1-2.5-11.3-6.3-15c-3.9-3.8-9.1-6-14.7-6c-2.7,0-5.6,0.5-8.4,1.7c-16.8,7.2-38,20-58.9,42.7   c-21.3,23.2-41.8,52.1-57.4,76.3c-15.6,24.2-26.5,43.6-28.8,47.8c-0.3,0.6-0.5,0.8-0.5,0.8l0,0l0,0l0,0l-0.1,0.2   c-0.1,0.2-0.2,0.4-0.4,0.7c-0.3,0.7-0.7,1.6-1.2,2.9c-0.8,2.4-1.7,5.7-1.7,9.2c0,2.2,0.3,4.4,1.2,6.6c0.8,2.1,2.1,4.2,4.3,6.2   c4.2,3.9,11.8,7.5,25.1,8.8c18.6,1.8,45.3,2.4,71,2.4c30.9,0,60.4-0.8,73.3-1.2C1789.1,2073.1,1790.3,2073.1,1791.3,2073.1z"/><path d="M1770.3,1861.7c-3.6,0-7.3,0.7-10.9,2.3c-17.5,7.5-39.6,20.8-61.1,44.2c-23.2,25.2-45.1,56.7-61.2,81.9   c-16.1,25.2-26.4,44.2-26.5,44.3l0,0c-0.1,0.1-1.1,1.9-2.1,4.8c-1,2.9-2,6.8-2,11.3c0,2.8,0.4,5.9,1.6,8.9   c1.7,4.5,5.2,8.9,10.8,12.3c5.6,3.4,13.3,5.8,23.9,6.8c19,1.9,45.8,2.4,71.6,2.4c41.3,0,80.2-1.5,80.2-1.5c1.7-0.1,3.1-1.5,3.1-3.2   v-187c0-7.9-3.3-14.8-8.3-19.7C1784.4,1864.6,1777.5,1861.7,1770.3,1861.7z M1643.5,2072c-13.3-1.3-20.9-4.8-25.1-8.8   c-2.1-2-3.4-4.1-4.3-6.2c-0.8-2.1-1.2-4.4-1.2-6.6c0-3.4,0.8-6.7,1.7-9.2c0.4-1.2,0.8-2.2,1.2-2.9c0.2-0.3,0.3-0.6,0.4-0.7l0.1-0.2   l0,0l0,0l0,0c0,0,0.2-0.3,0.5-0.8c2.3-4.2,13.2-23.6,28.8-47.8c15.6-24.2,36.1-53.1,57.4-76.3c20.9-22.7,42.1-35.5,58.9-42.7   c2.8-1.2,5.6-1.7,8.4-1.7c5.5,0,10.8,2.2,14.7,6c3.9,3.8,6.3,9,6.3,15v183.9c-1,0-2.2,0.1-3.6,0.1c-12.8,0.4-42.4,1.2-73.3,1.2   C1688.7,2074.4,1662,2073.8,1643.5,2072z"/><path d="M1893.2,2074.4h251.9c8.4,0,15.9-3.4,21.4-8.9c5.5-5.5,8.9-13.1,8.9-21.4v-149c0-8.4-3.4-15.9-8.9-21.4   c-5.5-5.5-13.1-8.9-21.4-8.9h-251.9c-8.4,0-15.9,3.4-21.4,8.9c-5.5,5.5-8.9,13.1-8.9,21.4v149c0,8.4,3.4,15.9,8.9,21.4   C1877.2,2071,1884.8,2074.4,1893.2,2074.4z"/><path d="M2181.9,2044.1v-149c0-20.3-16.5-36.7-36.7-36.7h-251.9c-20.3,0-36.7,16.4-36.7,36.7v149c0,20.3,16.4,36.7,36.7,36.7h251.9   C2165.4,2080.8,2181.9,2064.4,2181.9,2044.1z M1862.9,1895.2c0-8.4,3.4-15.9,8.9-21.4c5.5-5.5,13.1-8.9,21.4-8.9h251.9   c8.4,0,15.9,3.4,21.4,8.9c5.5,5.5,8.9,13.1,8.9,21.4v149c0,8.4-3.4,15.9-8.9,21.4c-5.5,5.5-13.1,8.9-21.4,8.9h-251.9   c-8.4,0-15.9-3.4-21.4-8.9c-5.5-5.5-8.9-13.1-8.9-21.4V1895.2z"/><path d="M2738.8,2031.8c-0.5-10.7-3.8-21.9-10.6-33.7c-6.8-11.8-17.2-24.3-31.5-37.3l-0.1,0l-19.1-18.2   c-52.3-49.9-121.9-77.7-194.2-77.7h-164.2c-10.4,0-19.8,4.2-26.6,11c-6.8,6.8-11,16.2-11,26.6v138.3c0,9.3,3.8,17.7,9.8,23.7   c6.1,6.1,14.5,9.8,23.8,9.8h381.7c11.5,0,22-4.6,29.6-12c7.6-7.4,12.4-17.6,12.4-28.9C2738.8,2033,2738.8,2032.4,2738.8,2031.8z"/><path d="M2733.7,1994.9c-7.2-12.6-18-25.5-32.7-38.8v0l-19.1-18.2c-53.5-51-124.7-79.5-198.6-79.5h-164.2   c-24.4,0-44.1,19.7-44.1,44.1v138.3c0,22.1,17.9,40,40,40h381.7c13.2,0,25.3-5.3,34.1-13.8c8.8-8.5,14.4-20.4,14.4-33.5   c0-0.7,0-1.3,0-2C2744.7,2019.7,2741,2007.4,2733.7,1994.9z M2696.8,2074.4h-381.7c-9.3,0-17.7-3.8-23.8-9.8   c-6.1-6.1-9.8-14.5-9.8-23.7v-138.3c0-10.4,4.2-19.8,11-26.6c6.8-6.8,16.2-11,26.6-11h164.2c72.3,0,141.8,27.8,194.2,77.7   l19.1,18.2l0.1,0c14.3,13.1,24.6,25.5,31.5,37.3c6.8,11.8,10.2,23,10.6,33.7c0,0.6,0,1.1,0,1.7c0,11.3-4.8,21.5-12.4,28.9   C2718.7,2069.8,2708.2,2074.4,2696.8,2074.4z"/><path class="st4" d="M2207.5,1730.3c0,1.8,1.4,3.2,3.2,3.2c1.8,0,3.2-1.4,3.2-3.2v-54.5h-6.4V1730.3z"/><path d="M2831.9,1972c-111.9-77.6-223.7-127.7-297-147.1c-35.7-9.4-95.7-18.1-168-24.6c-42-3.7-88.1-6.7-135.9-8.5   c-2.1-0.1-4.3-0.2-6.4-0.2c-32.6-1.2-65.9-1.8-99.2-1.8c-89.7,0-179.5,4.6-254.9,16c-37.7,5.7-71.8,13.1-100.6,22.5   c-28.7,9.4-52.2,20.8-68.5,34.7c-61.9,52.8-114.3,128.4-151.4,190.8c-26.6,44.7-45.2,82.7-53.7,100.6c-3.3,7.1-5.1,11.1-5.1,11.1   c-0.7,1.6,0,3.5,1.6,4.2c1.6,0.7,3.5,0,4.2-1.6h0c0,0,0.1-0.2,0.2-0.6c0-0.1,0.1-0.1,0.1-0.2c2.9-6.5,25.3-55.8,61.6-116.1   c36.6-60.9,87.5-133,146.5-183.4c15.3-13.1,38-24.2,66.3-33.5c42.4-13.9,97.2-23.4,158.2-29.5c61-6.1,128.1-8.7,195.2-8.7   c33.3,0,66.6,0.6,99.2,1.8c2.1,0.1,4.3,0.2,6.4,0.2c47.7,1.8,93.6,4.8,135.4,8.5c72.1,6.4,131.9,15.2,166.9,24.4   c72.3,19,183.7,68.9,295,146.1c106.9,74.2,213.8,173.5,286.3,294.7c3,5,5.9,10,8.8,15c0.9,1.5,2.8,2.1,4.4,1.2   c1.5-0.9,2.1-2.8,1.2-4.4c-0.1-0.2-0.2-0.3-0.3-0.5C3055.4,2154.4,2943.6,2049.5,2831.9,1972z"/><polygon class="st5" points="3244.7,2341.3 3244.7,2341.3 3244.7,2341.3  "/><path class="st5" d="M3245.9,2340.6c-0.5,2.8-0.7,5.6-0.7,8.4c0,10.4,3.1,20.6,7.8,30.2c4.7,9.6,11.1,18.4,17.7,26   c10.1,11.8,20.5,20.5,25.4,24.4c0.2-0.4,0.4-0.7,0.6-1.1c1.4-2.8,3.4-6.7,5.3-11.3c3.9-9.3,7.6-21.4,7.6-32.5c0-5-0.8-9.8-2.5-14.1   c-6-14.6-13.1-23.4-20.2-28.5c-7-5.1-14.1-6.8-20.5-6.8C3256.8,2335.2,3248.8,2339,3245.9,2340.6z"/><path class="st4" d="M3250.6,2331.5c-5.7,2-9.3,4.3-9.5,4.4c-0.7,0.5-1.2,1.2-1.4,2.1c-0.7,3.7-1,7.4-1,11c0,12.1,3.6,23.6,9,34.1   c8,15.7,19.8,29.1,29.7,38.7c9.8,9.5,17.7,15.2,17.8,15.3c0.7,0.5,1.6,0.7,2.5,0.5c0.9-0.2,1.6-0.7,2.1-1.5c0-0.1,2.1-3.5,4.7-8.9   c1.1-2.2,2.2-4.7,3.4-7.5c0,0,0,0,0-0.1c4-9.7,8.1-22.4,8.1-35c0-5.7-0.8-11.3-3-16.6c-6.4-15.4-14.1-25.2-22.3-31.3   c-8.2-6-16.8-8-24.3-8c-3.3,0-6.5,0.4-9.3,1C3254.7,2330.2,3252.6,2330.9,3250.6,2331.5z M3286.9,2342c7,5.1,14.1,13.9,20.2,28.5   c1.8,4.3,2.5,9.1,2.5,14.1c0,11.1-3.8,23.3-7.6,32.5c-1.9,4.6-3.8,8.6-5.3,11.3c-0.2,0.4-0.4,0.8-0.6,1.1   c-4.9-3.9-15.3-12.6-25.4-24.4c-6.5-7.6-12.9-16.5-17.7-26c-4.7-9.6-7.8-19.8-7.8-30.2c0-2.8,0.2-5.6,0.7-8.4   c2.9-1.6,11-5.5,20.5-5.4C3272.8,2335.2,3279.8,2336.8,3286.9,2342z M3244.7,2341.3L3244.7,2341.3L3244.7,2341.3L3244.7,2341.3z"/><path class="st3" d="M1916.5,1612.6c0,15.7,6.4,29.9,16.6,40.1c10.3,10.3,24.5,16.6,40.1,16.6h245c15.7,0,29.9-6.4,40.1-16.6   c10.3-10.3,16.6-24.5,16.6-40.1v-89.7c0-15.7-6.4-29.9-16.6-40.1c-10.3-10.3-24.5-16.6-40.1-16.6h-245c-15.7,0-29.9,6.4-40.1,16.6   c-10.3,10.3-16.6,24.5-16.6,40.1V1612.6z"/><path class="st4" d="M1910.4,1618.9c3.2,32,30.1,56.9,62.9,56.9h234.2h6.4h4.3c33.1,0,60.2-25.4,63-57.7c0.2-1.8,0.3-3.6,0.3-5.5   v-0.9v-88.8c0-34.9-28.3-63.2-63.2-63.2h-245c-34.9,0-63.2,28.3-63.2,63.2v89.5v0.2C1910.1,1614.7,1910.2,1616.8,1910.4,1618.9z    M1973.3,1466.1h245c15.7,0,29.9,6.4,40.1,16.6c10.3,10.3,16.6,24.5,16.6,40.1v89.7c0,15.7-6.4,29.9-16.6,40.1   c-10.3,10.3-24.5,16.6-40.1,16.6h-245c-15.7,0-29.9-6.4-40.1-16.6c-10.3-10.3-16.6-24.5-16.6-40.1v-89.7c0-15.7,6.4-29.9,16.6-40.1   C1943.4,1472.4,1957.6,1466.1,1973.3,1466.1z"/><path class="st5" d="M2307.4,1627.5c0,11.6,4.7,22,12.3,29.6c7.6,7.6,18,12.3,29.6,12.3h115.9c11.6,0,22-4.7,29.6-12.3   c7.6-7.6,12.3-18,12.3-29.6v-119.5c0-11.6-4.7-22-12.3-29.6c-7.6-7.6-18-12.3-29.6-12.3h-115.9c-11.6,0-22,4.7-29.6,12.3   c-7.6,7.6-12.3,18-12.3,29.6V1627.5z"/><path class="st4" d="M2300.9,1618v9.4c0,26.7,21.6,48.3,48.3,48.3h115.9c6.6,0,12.8-1.3,18.5-3.7c2.2-0.9,4.4-2,6.4-3.3   c14-8.5,23.4-23.8,23.4-41.4v-119.5c0-26.7-21.6-48.3-48.3-48.3h-115.9c-26.7,0-48.3,21.6-48.3,48.3v103.7V1618z M2349.2,1466.1   h115.9c11.6,0,22,4.7,29.6,12.3c7.6,7.6,12.3,18,12.3,29.6v119.5c0,11.6-4.7,22-12.3,29.6c-7.6,7.6-18,12.3-29.6,12.3h-115.9   c-11.6,0-22-4.7-29.6-12.3c-7.6-7.6-12.3-18-12.3-29.6v-119.5c0-11.6,4.7-22,12.3-29.6C2327.2,1470.8,2337.6,1466.1,2349.2,1466.1z   "/><path class="st5" d="M2199.3,1387.4c-5.1-5.1-12.1-8.2-19.8-8.2h-149.4c-7.7,0-14.7,3.1-19.8,8.2c-5.1,5.1-8.2,12.1-8.2,19.8v12.9   c0,7.7,3.1,14.7,8.2,19.8c5.1,5.1,12.1,8.2,19.8,8.2h149.4c7.7,0,14.7-3.1,19.8-8.2c5.1-5.1,8.2-12.1,8.2-19.8v-3.5v-5.9v-3.5   C2207.5,1399.5,2204.4,1392.5,2199.3,1387.4z"/><path class="st4" d="M2207.5,1416.7v3.5c0,7.7-3.1,14.7-8.2,19.8c-5.1,5.1-12.1,8.2-19.8,8.2h-149.4c-7.7,0-14.7-3.1-19.8-8.2   c-5.1-5.1-8.2-12.1-8.2-19.8v-12.9c0-7.7,3.1-14.7,8.2-19.8c5.1-5.1,12.1-8.2,19.8-8.2h149.4c7.7,0,14.7,3.1,19.8,8.2   c5.1,5.1,8.2,12.1,8.2,19.8v3.5c0-5.9,1.4-11.6,3.9-16.6c-5.1-12.5-17.5-21.4-31.8-21.4h-149.4c-19,0-34.4,15.4-34.4,34.4v12.9   c0,19,15.4,34.4,34.4,34.4h149.4c14.4,0,26.7-8.8,31.8-21.4C2208.9,1428.2,2207.5,1422.6,2207.5,1416.7z"/><path class="st3" d="M2438,1379.2h-192.6c-8.7,0-16.6,3.5-22.3,9.2c-5.7,5.7-9.2,13.6-9.2,22.3v5.9c0,8.7,3.5,16.6,9.2,22.3   c5.7,5.7,13.6,9.2,22.3,9.2H2438c8.7,0,16.6-3.5,22.3-9.2c5.7-5.7,9.2-13.6,9.2-22.3v-5.9c0-8.7-3.5-16.6-9.2-22.3   C2454.6,1382.8,2446.7,1379.2,2438,1379.2z"/><path class="st4" d="M2211.4,1394.2c-2.4,5-3.8,10.6-3.9,16.6v5.9c0,5.9,1.4,11.6,3.9,16.6c6.2,12.6,19.1,21.4,34.1,21.4H2438   c20.9,0,37.9-17,37.9-37.9v-5.9c0-20.9-17-37.9-37.9-37.9h-192.6C2230.4,1372.8,2217.5,1381.5,2211.4,1394.2z M2469.5,1416.7   c0,8.7-3.5,16.6-9.2,22.3c-5.7,5.7-13.6,9.2-22.3,9.2h-192.6c-8.7,0-16.6-3.5-22.3-9.2c-5.7-5.7-9.2-13.6-9.2-22.3v-5.9   c0-8.7,3.5-16.6,9.2-22.3c5.7-5.7,13.6-9.2,22.3-9.2H2438c8.7,0,16.6,3.5,22.3,9.2c5.7,5.7,9.2,13.6,9.2,22.3V1416.7z"/><path class="st3" d="M3401.7,2474.1c-35.2,0-70.7,9.7-88.3,15.4c-3.7,9-5.5,19.2-5.5,29.8c0,19.3,6,39.4,17.1,54.3   c23.2,8.3,45.6,11.8,65.9,11.8c21.8,0,41.3-4.1,57.1-10.7c15.8-6.6,27.8-15.9,34.8-26c4.6-6.7,7.1-13.8,7.1-20.9   c0-7-2.3-14.2-7.6-21.3l0,0c-9.1-12.3-21.3-20.3-35.3-25.3C3433.1,2476,3417.4,2474.1,3401.7,2474.1z"/><path class="st4" d="M3401.7,2467.7c-19.2,0-38.3,2.8-54.7,6.3c-2.7,0.6-5.3,1.2-7.8,1.7c-12.1,2.8-22.3,5.9-29.3,8.2   c-0.9,0.3-1.6,0.9-1.9,1.8c-4.5,10.2-6.6,21.8-6.6,33.7c0,20.9,6.6,42.7,19,58.9c0.4,0.5,0.9,0.9,1.5,1.1   c13.9,5,27.4,8.3,40.5,10.3c2.2,0.3,4.4,0.6,6.5,0.9c7.5,0.9,14.8,1.3,21.9,1.3c30.2,0,56.2-7.5,75-19.2   c9.4-5.8,16.9-12.7,22.2-20.4c5.3-7.6,8.2-16,8.2-24.6c0-3.8-0.6-7.7-1.8-11.5c-1.5-4.6-3.8-9.2-7.1-13.7l-2.6,1.9l2.6-1.9   c-1.1-1.5-2.3-3-3.5-4.4c-9.5-11-21.5-18.5-34.7-23.2c-3.3-1.2-6.6-2.2-10-3c-2.7-0.7-5.5-1.3-8.3-1.8   C3421.4,2468.4,3411.5,2467.7,3401.7,2467.7z M3482.2,2506.4L3482.2,2506.4c5.3,7.1,7.6,14.3,7.6,21.3c0,7.1-2.4,14.2-7.1,20.9   c-7,10.1-19,19.4-34.8,26c-15.8,6.7-35.3,10.7-57.1,10.7c-20.3,0-42.7-3.6-65.9-11.8c-11-14.8-17.1-35-17.1-54.3   c0-10.6,1.8-20.8,5.5-29.8c17.6-5.7,53.1-15.4,88.3-15.4c15.7,0,31.4,1.9,45.3,7C3460.9,2486.1,3473.1,2494.1,3482.2,2506.4z"/><path d="M926,2853.1c0-1.8-1.4-3.2-3.2-3.2H751.7h-41.6c-1.8,0-3.2,1.4-3.2,3.2c0,1.8,1.4,3.2,3.2,3.2h43.7h169.1   C924.6,2856.3,926,2854.9,926,2853.1z"/><path d="M960.6,2913.4h209.2c1.8,0,3.2-1.4,3.2-3.2c0-1.8-1.4-3.2-3.2-3.2H960.6c-1.8,0-3.2,1.4-3.2,3.2   C957.4,2912,958.8,2913.4,960.6,2913.4z"/><path d="M1171.8,2872.5h52.5c1.8,0,3.2-1.4,3.2-3.2c0-1.8-1.4-3.2-3.2-3.2h-52.5c-1.8,0-3.2,1.4-3.2,3.2   C1168.5,2871.1,1170,2872.5,1171.8,2872.5z"/><path d="M2742,2872.5h250.5c1.8,0,3.2-1.4,3.2-3.2c0-1.8-1.4-3.2-3.2-3.2H2742c-1.8,0-3.2,1.4-3.2,3.2   C2738.8,2871.1,2740.2,2872.5,2742,2872.5z"/><path d="M2898.1,2915.2h-30.8c-1.8,0-3.2,1.4-3.2,3.2c0,1.8,1.4,3.2,3.2,3.2h30.8c1.8,0,3.2-1.4,3.2-3.2   C2901.3,2916.7,2899.8,2915.2,2898.1,2915.2z"/><path class="st1" d="M3496.3,1169.7c0.2-3,0.4-6,0.4-9c0-66.7-54.1-120.8-120.8-120.8S3255,1094,3255,1160.7c0,1.4,0.1,2.8,0.1,4.2   l-0.1,0c-68.8,0-127.2,44.6-147.9,106.5h560.6C3632.7,1212.5,3569.3,1172.3,3496.3,1169.7z"/><path class="st1" d="M1520.6,1387.3c-8.4-49.8-69-88.4-142.6-88.4c-79.3,0-143.6,44.9-143.6,100.2c0,3.7,0.3,7.4,0.9,10.9   c-44.9,1.6-83.3,18.8-102.4,43.2h486C1603.9,1423.2,1567.5,1399.1,1520.6,1387.3z"/><ellipse class="st1" cx="3234" cy="1381.1" rx="126.9" ry="14.7"/><path class="st1" d="M3575.4,1358c0,4.7,26.3,8.5,58.7,8.5c32.4,0,58.7-3.8,58.7-8.5c0-4.7-26.3-8.5-58.7-8.5   C3601.6,1349.5,3575.4,1353.3,3575.4,1358z"/><path class="st1" d="M1130.2,1520.8c40.1,0,72.6-3.2,72.6-7.2c0-4-32.5-7.2-72.6-7.2s-72.6,3.2-72.6,7.2   C1057.7,1517.6,1090.1,1520.8,1130.2,1520.8z"/><path class="st1" d="M1494.2,1544c0,7.7,18.4,13.9,41.1,13.9c22.7,0,41.1-6.2,41.1-13.9c0-7.7-18.4-13.9-41.1-13.9   C1512.6,1530.1,1494.2,1536.3,1494.2,1544z"/><path class="st1" d="M1775,1278c-56.7,86.6,7.6,173.3,7.6,173.3c2.6-79.3,30.3-123.7,85.3-155.1c26.9,3.2,55.1,4.9,84.2,4.9   c189.1,0,342.3-72,342.3-160.8c0-88.8-153.3-160.8-342.3-160.8c-189.1,0-342.3,72-342.3,160.8   C1609.7,1198.8,1675.9,1249.9,1775,1278z M2111.2,1127.9c9,0,16.3,7.3,16.3,16.3c0,9-7.3,16.3-16.3,16.3s-16.3-7.3-16.3-16.3   C2094.9,1135.2,2102.2,1127.9,2111.2,1127.9z M1952.1,1127.9c9,0,16.3,7.3,16.3,16.3c0,9-7.3,16.3-16.3,16.3   c-9,0-16.3-7.3-16.3-16.3C1935.7,1135.2,1943,1127.9,1952.1,1127.9z M1792.9,1127.9c9,0,16.3,7.3,16.3,16.3c0,9-7.3,16.3-16.3,16.3   c-9,0-16.3-7.3-16.3-16.3C1776.6,1135.2,1783.9,1127.9,1792.9,1127.9z"/><circle class="st3" cx="1792.9" cy="1144.2" r="16.3"/><circle class="st3" cx="1952.1" cy="1144.2" r="16.3"/><circle class="st3" cx="2111.2" cy="1144.2" r="16.3"/></g></svg>